<svg xmlns="http://www.w3.org/2000/svg" width="256" height="256"><path fill-opacity=".016" d="M0 128.004v128.004l128.25-.254 128.25-.254.254-127.75L257.008 0H0v128.004m.485.496c0 70.4.119 99.053.265 63.672.146-35.38.146-92.98 0-128C.604 29.153.485 58.1.485 128.5" fill="#1976D2" fill-rule="evenodd"/><path fill-opacity=".195" d="M78 4.777c0 1.528.623 3.668 1.385 4.755.762 1.088 1.899 5.29 2.527 9.339.628 4.049 1.632 8.277 2.231 9.396.598 1.118 1.506 5.402 2.018 9.52.511 4.117 1.596 8.777 2.412 10.354.816 1.577 1.868 5.938 2.34 9.69.471 3.752 1.52 8.138 2.332 9.745.811 1.608 1.758 5.748 2.103 9.199.344 3.451 1.359 7.692 2.255 9.424.895 1.731 2.019 6.332 2.497 10.225.478 3.892 1.511 8.651 2.296 10.576.786 1.925 2.1 6.875 2.921 11 2.009 10.089 5.277 21.129 6.479 21.885.539.338 1.721 2.19 2.628 4.115 2.434 5.17 4.555 9.305 5.641 11 .528.825 1.874 3.3 2.99 5.5 1.117 2.2 3.13 5.8 4.473 8 1.344 2.2 3.373 5.8 4.509 8 1.137 2.2 3.368 6.25 4.958 9 1.59 2.75 3.179 5.675 3.53 6.5 1.355 3.186 2.661 5.679 5.5 10.5 1.62 2.75 3.581 6.408 4.358 8.128.777 1.72 1.874 3.413 2.438 3.761.564.349 1.314 1.948 1.666 3.553.353 1.606 1.293 3.46 2.089 4.121.796.661 2.356 3.054 3.468 5.319 3.429 6.989 5.021 10.057 6.028 11.618.533.825 1.675 3.045 2.538 4.933 1.581 3.458 6.837 9.067 8.496 9.067 1.195 0 1.151-6.723-.048-7.464-.518-.321-1.219-2.71-1.557-5.309-.338-2.6-1.445-7.652-2.459-11.227-1.015-3.575-2.29-9.2-2.834-12.5-.544-3.3-1.694-7.8-2.555-10-.861-2.2-1.585-5.937-1.609-8.305-.024-2.368-.887-6.193-1.918-8.5-1.03-2.307-2.187-7.087-2.569-10.621-.383-3.535-1.504-8.035-2.492-10-.987-1.966-2.023-6.539-2.302-10.164-.279-3.624-1.168-7.674-1.977-9-.808-1.325-2.038-6.01-2.733-10.41-.695-4.4-1.892-9.215-2.659-10.7-.767-1.486-1.401-3.736-1.409-5-.008-1.265-.668-3.425-1.466-4.8-1.459-2.513-4.312-7.927-7.114-13.5-.83-1.65-1.951-3.675-2.491-4.5-.54-.825-1.71-3.187-2.6-5.25-.889-2.062-1.95-3.75-2.357-3.75-.407 0-1.494-1.687-2.416-3.75-.922-2.062-2.973-6-4.557-8.75-1.584-2.75-3.798-6.8-4.92-9-1.121-2.2-2.446-4.675-2.945-5.5-.498-.825-1.425-2.625-2.06-4-.636-1.375-2.252-4.3-3.593-6.5-1.34-2.2-3.367-5.8-4.503-8-1.137-2.2-3.363-6.25-4.947-9s-3.635-6.687-4.557-8.75c-.922-2.062-2.016-3.75-2.432-3.75-.415 0-1.529-2.025-2.474-4.5-.945-2.475-2.06-4.5-2.477-4.5-.418 0-1.297-1.793-1.953-3.984-.656-2.191-2.078-4.457-3.158-5.035C83.884 6.403 83 5.045 83 3.965 83 2.536 82.318 2 80.5 2c-2.067 0-2.5.482-2.5 2.777m28-1.338c0 .963-1.57 1.642-4.75 2.054C92.606 6.614 92 6.872 92 9.427c0 1.314 1.189 4.68 2.642 7.481L97.284 22h5.358c6.018 0 7.005 1.238 2.108 2.643-2.534.727-3.25 1.474-3.25 3.394 0 2.152.505 2.505 4 2.793 2.2.181 8.169-.453 13.265-1.41 8.704-1.634 9.828-1.639 18.557-.08 5.111.913 11.569 1.66 14.351 1.66 3.514 0 5.82.6 7.557 1.967 1.376 1.081 4.341 2.261 6.589 2.62 2.249.36 4.854 1.5 5.79 2.533.936 1.034 2.444 1.88 3.352 1.88.908 0 3.175 1.125 5.039 2.5 1.864 1.375 3.96 2.5 4.659 2.5.699 0 1.752.9 2.341 2 .589 1.1 1.606 2 2.262 2C190.75 49 210 68.859 210 70.395c0 .618.9 1.686 2 2.373 1.1.687 2 2.122 2 3.189 0 1.067 1.125 3.154 2.5 4.638 1.375 1.483 2.5 3.739 2.5 5.012 0 1.273.836 3.12 1.859 4.104 1.045 1.006 2.139 3.925 2.499 6.669.351 2.684 1.564 6.376 2.695 8.206 1.938 3.136 2.039 4.582 1.751 25.267-.268 19.374-.512 22.172-2.085 23.907-.979 1.081-2.053 4.263-2.385 7.07-.367 3.098-1.338 5.769-2.469 6.793-1.026.928-1.865 2.655-1.865 3.838 0 1.183-1.125 3.675-2.5 5.539-1.375 1.864-2.5 3.956-2.5 4.649 0 .693-1.012 2.366-2.25 3.718-1.238 1.351-3.15 3.72-4.25 5.263-4.385 6.153-19.519 19.952-23.676 21.588-1.003.395-1.824 1.176-1.824 1.736 0 .561-1.608 1.691-3.572 2.512-2.82 1.178-3.505 1.971-3.25 3.763.248 1.748 1.071 2.343 3.572 2.584 1.787.173 3.25.735 3.25 1.25a.935.935 0 01-.929.937c-2.673 0-3.96 3.146-3.383 8.272.884 7.862 1.779 9.063 6.303 8.456 2.086-.28 5.079-1.397 6.651-2.484 2.468-1.705 6.585-4.457 16.881-11.284 4.681-3.103 20.695-20.4 25.017-27.021 2.446-3.747 4.9-7.093 5.454-7.435.553-.342 1.006-1.408 1.006-2.369 0-.96 1.125-3.271 2.5-5.135 1.375-1.864 2.5-4.243 2.5-5.287 0-1.043.863-2.994 1.917-4.335 1.054-1.34 2.233-4.336 2.618-6.657.386-2.322 1.397-5.571 2.246-7.221.85-1.65 1.904-7.214 2.342-12.364.467-5.496 1.433-10.335 2.337-11.715 1.724-2.631 2.284-19.999.612-18.965-1.361.841-2.064-2.18-2.949-12.661-.473-5.616-1.424-10.343-2.378-11.825-.874-1.359-1.898-4.593-2.276-7.188-.377-2.595-1.322-5.245-2.098-5.889-.777-.645-1.916-3.173-2.532-5.618-.616-2.445-1.704-4.67-2.418-4.944-.714-.274-1.577-1.764-1.917-3.311-.339-1.547-1.492-3.604-2.561-4.571-1.069-.968-1.943-2.293-1.943-2.946 0-.652-.903-2.27-2.006-3.595a1616.163 1616.163 0 01-7.983-9.761c-7.151-8.795-20.445-20.246-30.911-26.622-.88-.536-3.199-1.999-5.154-3.25-1.954-1.251-4.256-2.275-5.115-2.275s-2.634-.841-3.946-1.87c-1.312-1.028-3.96-2.197-5.885-2.598-1.925-.401-4.575-1.411-5.889-2.244-1.314-.834-5.347-1.883-8.962-2.332-4.046-.501-7.014-1.418-7.721-2.385C149.777 1.312 106 1.185 106 3.439M68 17.5c-1.864 1.375-3.792 2.5-4.286 2.5-.966 0-2.008.761-14.214 10.384-8.729 6.882-19.669 18.093-22.749 23.313C25.679 55.514 24.427 57 23.969 57c-.459 0-1.141 1.012-1.517 2.25-.375 1.237-1.497 3.15-2.493 4.25-.996 1.1-2.127 3.274-2.514 4.831-.386 1.557-1.292 3.057-2.013 3.333-.72.277-1.611 1.928-1.979 3.67-.368 1.741-1.482 4.516-2.477 6.166-.994 1.65-2.121 4.8-2.504 7s-1.396 5.111-2.251 6.469c-.922 1.465-1.892 6.471-2.386 12.314-.458 5.414-1.283 10.686-1.834 11.715-1.298 2.426-1.298 16.578 0 19.004.551 1.029 1.382 6.373 1.847 11.877.498 5.883 1.467 10.956 2.352 12.313.829 1.27 1.82 4.414 2.204 6.988.384 2.573 1.575 5.794 2.647 7.157C12.123 177.7 13 179.67 13 180.713c0 1.044 1.125 3.423 2.5 5.287 1.375 1.864 2.5 4.175 2.5 5.135 0 .961.453 2.027 1.006 2.369.554.342 2.996 3.669 5.427 7.393C28.677 207.4 44.882 224.885 49.551 228c1.236.825 4.881 3.248 8.098 5.385a982.84 982.84 0 018.37 5.609c1.386.949 3.636 2.075 5 2.503 1.365.428 3.554 1.616 4.866 2.641 1.312 1.024 3.349 1.862 4.527 1.862 1.179 0 3.231.762 4.561 1.693 5.028 3.522 14.519 4.661 42.027 5.045 18.151.254 27.76.005 30.5-.788 9.904-2.868 10.131-3.356 5.401-11.623-2.351-4.109-3.799-5.557-6-5.997-3.297-.659-3.316-.693-1.743-3.211 3.085-4.94-3.126-6.757-10.658-3.119-5.945 2.872-26.094 2.821-32.494-.082-2.472-1.122-7.298-2.301-10.724-2.621-4.249-.396-6.764-1.172-7.911-2.439-.924-1.022-2.961-1.858-4.526-1.858s-3.759-.914-4.876-2.031c-1.117-1.117-3.383-2.302-5.036-2.632-1.652-.331-3.454-1.442-4.004-2.469-.55-1.027-1.475-1.868-2.056-1.868-1.037 0-2.772-1.226-11.006-7.775-2.264-1.802-6.506-6.302-9.425-10-2.919-3.699-6.238-7.753-7.375-9.01-1.137-1.257-2.067-2.91-2.067-3.674 0-.763-1.125-2.725-2.5-4.359s-2.5-3.918-2.5-5.076c0-1.158-.829-2.935-1.842-3.948-1.014-1.014-2.138-3.997-2.499-6.63-.361-2.633-1.581-6.284-2.711-8.112-1.94-3.139-2.038-4.581-1.752-25.768.269-19.856.509-22.669 2.085-24.408.979-1.081 2.053-4.263 2.385-7.07.367-3.098 1.338-5.769 2.469-6.793 1.026-.928 1.865-2.719 1.865-3.98 0-1.262 1.125-3.508 2.5-4.992 1.375-1.483 2.5-3.348 2.5-4.143 0-.795 1.013-2.776 2.25-4.402C49.303 66.533 66.572 49 67.765 49c.64 0 1.646-.9 2.235-2s1.656-2 2.371-2C74.334 45 83 37.935 83 36.335c0-.769-.675-1.609-1.5-1.866-4.982-1.557-4.749-1.275-3.058-3.69 1.639-2.34 1.291-10.335-.611-14.029-1.301-2.526-5.863-2.178-9.831.75m81 5.5c0 .55 1.827 1 4.059 1 2.451 0 3.814-.396 3.441-1-.34-.55-2.166-1-4.059-1-1.893 0-3.441.45-3.441 1m16.694 3.639c-1.043 1.043.278 2.361 2.365 2.361 2.336 0 2.568-1.545.359-2.393-1.952-.749-1.942-.749-2.724.032M176 32c0 .55.927 1 2.059 1 1.132 0 1.781-.45 1.441-1-.34-.55-1.266-1-2.059-1-.793 0-1.441.45-1.441 1M69 37c0 .55.648 1 1.441 1s1.719-.45 2.059-1c.34-.55-.309-1-1.441-1-1.132 0-2.059.45-2.059 1m55.527.75c-.378.962-1.107 7.577-1.619 14.699-.955 13.274-.348 18.111 2.579 20.54.761.632 1.664 2.421 2.005 3.976.342 1.555 1.451 3.579 2.466 4.497 1.014.918 2.134 3.214 2.488 5.103.525 2.797 1.097 3.435 3.08 3.435 1.786 0 2.609-.69 3.085-2.586.945-3.766-.437-16.753-2.242-21.074-.854-2.044-1.925-8.92-2.38-15.279C132.966 36.74 132.696 36 128.5 36c-2.201 0-3.513.578-3.973 1.75M184 37c0 .55.9 1 2 1s2-.45 2-1-.9-1-2-1-2 .45-2 1m8.813 4.683c.721.289 1.584.253 1.916-.079.332-.332-.258-.568-1.312-.525-1.165.048-1.402.285-.604.604M57 46c0 .55.45 1 1 1s1-.45 1-1-.45-1-1-1-1 .45-1 1m141 0c0 .55.45 1 1 1s1-.45 1-1-.45-1-1-1-1 .45-1 1M52.583 49.866c-.431.697-.513 1.537-.183 1.867.895.895 1.871-.421 1.387-1.871-.338-1.016-.574-1.016-1.204.004m150.014-.022c-.346.56-.142 1.319.453 1.687 1.538.95 2.53-.351 1.246-1.635-.718-.718-1.277-.735-1.699-.052M47.543 54.931c-.683 1.105.894 2.299 1.818 1.375.95-.951.773-2.306-.302-2.306-.518 0-1.2.419-1.516.931m159.607.019c.43 1.289 1.801 1.521 1.925.325.041-.399-.465-.905-1.125-1.125-.66-.22-1.02.14-.8.8M43 60c0 .55.45 1 1 1s1-.45 1-1-.45-1-1-1-1 .45-1 1m169 .5c0 .825.45 1.5 1 1.5s1-.675 1-1.5-.45-1.5-1-1.5-1 .675-1 1.5m5.015 6.25c-.008 1.237.435 2.25.985 2.25 1.253 0 1.253-1.061 0-3-.784-1.213-.972-1.069-.985.75m-177.936.833c.048 1.165.285 1.402.604.605.289-.722.253-1.585-.079-1.917-.332-.332-.568.258-.525 1.312M34 74.059c0 1.132.45 1.781 1 1.441.55-.34 1-1.266 1-2.059 0-.793-.45-1.441-1-1.441s-1 .927-1 2.059m187-.618c0 .793.45 1.719 1 2.059.55.34 1-.309 1-1.441 0-1.132-.45-2.059-1-2.059s-1 .648-1 1.441M29.667 80.667C28.629 81.704 28.883 85 30 85c.55 0 1-1.125 1-2.5 0-2.618-.231-2.936-1.333-1.833m49.745.701c-.333.869.112 2.299.991 3.178.878.878 1.597 2.224 1.597 2.99 0 .767.9 1.875 2 2.464s2 1.558 2 2.153c0 .596 1.237 2.535 2.75 4.311 1.513 1.775 3.297 4.084 3.965 5.132 1.189 1.864 1.248 1.862 2.828-.096 2.229-2.763 1.386-9.562-1.64-13.215-4.867-5.877-13.338-9.921-14.491-6.917m92.525.154c-1.34.766-3.449 1.85-4.687 2.41-1.238.56-2.25 1.435-2.25 1.944 0 .51-1.666 1.983-3.703 3.275-2.036 1.292-4.664 3.024-5.84 3.849a397.216 397.216 0 01-6.14 4.163c-5.127 3.412-7.296 8.098-4.949 10.691.898.992 1.632 2.27 1.632 2.84 0 .57.894 2.173 1.987 3.563 1.093 1.389 2.498 4.937 3.122 7.885.624 2.947 1.755 6.573 2.513 8.058.758 1.486 1.378 4.018 1.378 5.628 0 4.762 1.919 5.548 11.834 4.844 4.826-.342 10.775-1.335 13.22-2.207 2.445-.871 9.171-1.978 14.946-2.46s12.075-1.525 14-2.318c1.925-.792 5.601-1.743 8.168-2.113 5.528-.796 7.62-2.643 5.449-4.814-.916-.916-4.524-1.67-9.784-2.045-4.583-.327-9.951-1.273-11.929-2.104-1.977-.83-8.557-1.935-14.622-2.456-6.065-.522-12.052-1.496-13.304-2.167-1.253-.67-5.467-1.504-9.366-1.853-8.997-.806-9.301-1.939-2.658-9.889 2.775-3.321 5.046-6.47 5.046-6.996 0-.868 1.695-3.075 6.695-8.72.96-1.083 2.501-3.454 3.426-5.268 1.58-3.099 1.578-3.353-.033-4.215-1.142-.611-2.528-.453-4.151.475m54.063.919c0 1.407.45 2.559 1 2.559s1-.873 1-1.941-.45-2.219-1-2.559c-.567-.351-1 .49-1 1.941M25 94.059c0 1.785.417 2.802 1 2.441.55-.34 1-1.716 1-3.059C27 92.098 26.55 91 26 91s-1 1.377-1 3.059m205-.118c0 1.618.45 3.219 1 3.559.595.368 1-.823 1-2.941 0-1.957-.45-3.559-1-3.559s-1 1.323-1 2.941m-114 4c0 .518.45 1.219 1 1.559.55.34 1-.084 1-.941S117.55 97 117 97s-1 .423-1 .941m4.355 9.577c-.321.836-.073 3.544.55 6.02.993 3.943.868 5.119-1.011 9.487l-2.145 4.985 2.045 4.723c1.848 4.269 2.492 4.837 6.71 5.913 5.563 1.419 5.346 1.233 6.983 5.995 2.212 6.434 3.678 5.427 2.917-2.003-.529-5.161-.306-7.325 1.049-10.181 1.894-3.99 1.599-6.32-1.418-11.207-1.354-2.194-2.779-3.25-4.385-3.25-3.577 0-7.47-3.619-8.664-8.054-1.148-4.263-1.723-4.794-2.631-2.428m-99.688.149c-1.06 1.06-.772 12.15.333 12.833.631.39 1-1.99 1-6.441 0-7.097-.109-7.617-1.333-6.392M235 115c0 5.157.365 7.893 1 7.5.55-.34 1-3.715 1-7.5s-.45-7.16-1-7.5c-.635-.393-1 2.343-1 7.5m-149.5 2.566c-2.2.838-8.907 1.977-14.904 2.53-5.998.553-12.523 1.685-14.5 2.515-1.978.831-7.346 1.777-11.929 2.104-5.26.375-8.868 1.129-9.784 2.045-2.171 2.171-.079 4.018 5.449 4.814 2.567.37 6.243 1.321 8.168 2.113 1.925.793 8.225 1.84 14 2.327 5.775.487 12.544 1.594 15.042 2.459 2.498.865 8.798 1.901 14 2.302 9.173.707 9.45.8 9.199 3.093-.142 1.3-1.267 3.631-2.5 5.179-1.232 1.548-3.366 4.448-4.741 6.445-1.375 1.996-3.284 4.615-4.241 5.819-8.577 10.784-9.899 13.352-7.616 14.799 2.283 1.446 4.776.992 6.089-1.11.687-1.1 1.746-2 2.354-2 .607 0 1.961-.952 3.009-2.115 1.048-1.163 2.805-2.523 3.905-3.021 1.1-.499 3.8-2.272 6-3.94 2.2-1.669 5.449-3.946 7.22-5.06 3.971-2.499 5.437-7.928 2.899-10.733-.891-.984-1.619-2.255-1.619-2.825 0-.57-.848-2.114-1.884-3.431-1.734-2.205-2.944-5.715-6.16-17.875-.654-2.475-1.521-5.175-1.926-6-1.029-2.094-10.476-2.358-15.53-.434m149.515 24.243c-.009 5.288.349 8.084.985 7.691 1.28-.791 1.28-12.519 0-14.5-.669-1.035-.974 1.075-.985 6.809m-214.408-4.227c-.982 2.558-.695 11.246.393 11.918.631.39 1-1.99 1-6.441 0-7.157-.298-8.33-1.393-5.477M139 156.941c0 1.132.45 2.059 1 2.059s1-.648 1-1.441-.45-1.719-1-2.059c-.55-.34-1 .309-1 1.441m22.029.524c-2.485 2.994-.258 9.199 5.247 14.618 6.062 5.967 9.313 6.392 9.079 1.186-.139-3.089-1.012-4.453-8.65-13.519-3.536-4.196-3.951-4.363-5.676-2.285m69.638 3.202c-1.025 1.025-.79 5.139.333 5.833.595.368 1-.823 1-2.941 0-3.655-.18-4.045-1.333-2.892M25 164c0 1.824.415 2.862 1 2.5.55-.34 1-1.465 1-2.5s-.45-2.16-1-2.5c-.585-.362-1 .676-1 2.5m93.352 3.524c-1.06 2.763.516 19.229 2.223 23.233.922 2.161 1.919 8.619 2.36 15.278.42 6.344 1.298 12.531 1.95 13.75 1.363 2.546 5.248 2.965 7.076.762.699-.843 1.625-7.566 2.202-15.988.89-12.996.814-14.881-.714-17.797-.94-1.794-2.61-5.062-3.711-7.262-1.101-2.2-2.371-4.239-2.824-4.531-.452-.291-1.405-2.316-2.119-4.5-1.422-4.354-5.233-6.096-6.443-2.945m-89.016 6.043c-.331.862-.092 2.077.531 2.7.844.844 1.133.444 1.133-1.567 0-3.009-.749-3.518-1.664-1.133m196.664.992c0 1.451.433 2.292 1 1.941.55-.34 1-1.491 1-2.559s-.45-1.941-1-1.941-1 1.152-1 2.559m-4.469 7.734c-.428.986-.497 2.074-.155 2.417 1.016 1.015 1.835-.411 1.367-2.382-.414-1.747-.468-1.748-1.212-.035M34 183.5c0 .825.45 1.5 1 1.5s1-.675 1-1.5-.45-1.5-1-1.5-1 .675-1 1.5m182.648 6.974c-.308.804-.177 1.699.291 1.988.468.29 1.104-.131 1.413-.936.308-.804.177-1.699-.291-1.988-.468-.29-1.104.131-1.413.936m-177.569 1.109c.048 1.165.285 1.402.604.605.289-.722.253-1.585-.079-1.917-.332-.332-.568.258-.525 1.312M43 196.441c0 .857.45 1.559 1 1.559s1-.423 1-.941-.45-1.219-1-1.559c-.55-.34-1 .084-1 .941m169 .059c0 .825.45 1.5 1 1.5s1-.675 1-1.5-.45-1.5-1-1.5-1 .675-1 1.5m-164.457 4.431c-.317.512-.118 1.213.441 1.559.559.345 1.016-.074 1.016-.931 0-1.757-.6-2.015-1.457-.628m160 0c-.683 1.105.894 2.299 1.818 1.375.95-.951.773-2.306-.302-2.306-.518 0-1.2.419-1.516.931M52 206c0 .55.45 1 1 1s1-.45 1-1-.45-1-1-1-1 .45-1 1m151 0c0 .55.423 1 .941 1s1.219-.45 1.559-1c.34-.55-.084-1-.941-1s-1.559.45-1.559 1m-146.403 3.844c-.346.56-.142 1.319.453 1.687 1.538.95 2.53-.351 1.246-1.635-.718-.718-1.277-.735-1.699-.052m141.862.223c-.363.586-.419 1.306-.126 1.6.717.716 2.667-.546 2.667-1.726 0-1.278-1.726-1.193-2.541.126M61 215c0 .55.675 1 1.5 1s1.5-.45 1.5-1-.675-1-1.5-1-1.5.45-1.5 1m132 0c0 .55.675 1 1.5 1s1.5-.45 1.5-1-.675-1-1.5-1-1.5.45-1.5 1m-125.25 4.662c.688.278 1.813.278 2.5 0 .688-.277.125-.504-1.25-.504s-1.937.227-1.25.504m119 0c.688.278 1.813.278 2.5 0 .688-.277.125-.504-1.25-.504s-1.937.227-1.25.504M75 224c0 .55.927 1 2.059 1 1.132 0 1.781-.45 1.441-1-.34-.55-1.266-1-2.059-1-.793 0-1.441.45-1.441 1m8.5 5c.34.55 1.465 1 2.5 1s2.16-.45 2.5-1c.362-.585-.676-1-2.5-1-1.824 0-2.862.415-2.5 1m12.5 3.883c0 1.152 3.796 2.132 5.591 1.444.769-.295 1.149-.939.844-1.432-.717-1.16-6.435-1.17-6.435-.012M120.5 238c1.1.473 4.7.859 8 .859s6.9-.386 8-.859c1.292-.555-1.539-.859-8-.859s-9.292.304-8 .859" fill="#1976D2" fill-rule="evenodd"/><path fill-opacity=".332" d="M114.501 3.002c.879 1.422-3.414 2.831-10.987 3.607-3.58.367-7.254 1.212-8.166 1.878-1.537 1.124-1.522 1.587.207 6.396 2.619 7.284 2.248 7.241 26.556 3.071 4.966-.852 8.2-.846 13 .026 3.514.638 9.989 1.613 14.389 2.167 4.4.554 9.8 1.847 12 2.874 2.2 1.027 5.499 2.113 7.331 2.414 1.832.301 4.48 1.451 5.885 2.556 1.405 1.105 3.323 2.009 4.264 2.009.94 0 2.525.9 3.52 2 .995 1.1 2.381 2 3.078 2 .698 0 2.606 1.125 4.24 2.5 1.634 1.375 3.34 2.5 3.791 2.5.948 0 1.916.892 13.391 12.344 4.675 4.665 9.284 9.534 10.242 10.819 3.849 5.162 7.723 11.4 7.74 12.465.01.62.69 1.685 1.511 2.366s1.988 3.099 2.593 5.372c.605 2.274 1.751 4.864 2.547 5.757.796.893 1.823 3.818 2.282 6.5.459 2.682 1.656 6.452 2.659 8.377 1.606 3.079 1.826 6.149 1.827 25.5.002 20.195-.173 22.41-2.123 27-1.168 2.75-2.421 6.8-2.785 9-.364 2.2-1.257 4.675-1.985 5.5-.727.825-1.819 3.366-2.426 5.647-.607 2.281-1.731 4.388-2.499 4.683-.767.294-1.687 1.869-2.045 3.499-.358 1.63-1.526 3.755-2.595 4.722-1.069.968-1.943 2.36-1.943 3.096 0 .735-.9 1.898-2 2.585s-2.002 1.703-2.005 2.259c-.007 1.246-9.893 11.532-16.558 17.228a903.245 903.245 0 00-6.767 5.83c-1.006.886-3.144 2.069-4.75 2.629-1.606.56-2.92 1.369-2.92 1.799 0 .429-1.35 1.34-3 2.023-2.697 1.117-3 1.692-3 5.687 0 6.242 1.349 8.313 5.413 8.313 1.847 0 3.938-.717 4.673-1.604.733-.882 2.277-1.964 3.432-2.403 2.81-1.068 16.846-11.731 22.575-17.149 2.526-2.389 6.909-7.269 9.739-10.844 2.831-3.575 6.051-7.584 7.157-8.908 1.106-1.325 2.011-2.943 2.011-3.595 0-.653.86-1.965 1.91-2.916 1.051-.95 2.203-2.897 2.562-4.326.359-1.428 1.524-3.706 2.59-5.061 1.066-1.355 1.938-3.1 1.938-3.879 0-.778.753-2.854 1.674-4.615.92-1.76 2.243-5.45 2.938-8.2.696-2.75 2.042-7.025 2.992-9.5 1.457-3.797 1.729-8.173 1.744-28 .015-21.367-.174-24.045-2.092-29.5-1.16-3.3-2.423-7.575-2.808-9.5-.384-1.925-1.494-5.075-2.465-7-.971-1.925-3.213-6.425-4.982-10-5.116-10.342-6.601-12.635-15.216-23.5-4.487-5.659-18.844-19.384-20.989-20.065-.988-.313-1.796-.925-1.796-1.36 0-.435-2.812-2.459-6.25-4.498-3.437-2.039-6.925-4.131-7.75-4.649-.825-.519-2.625-1.444-4-2.057s-4.756-2.185-7.514-3.493c-2.758-1.308-5.683-2.381-6.5-2.384-.817-.004-2.836-.715-4.486-1.581s-7.032-2.18-11.96-2.921c-5.741-.863-9.374-1.912-10.111-2.92C142.477 2.27 139.839 2 128.081 2c-9.229 0-13.982.351-13.58 1.002m-30.834 7.665c-1.253 1.253-.669 8.066 1.196 13.953 1.025 3.234 2.189 8.13 2.587 10.88.398 2.75 1.584 7.573 2.637 10.718C91.139 49.364 92 53.231 92 54.812c0 1.581.832 5.308 1.849 8.281 1.016 2.974 2.167 7.845 2.556 10.825.39 2.98 1.365 6.989 2.167 8.91.803 1.92 1.951 6.682 2.552 10.582.601 3.899 1.52 7.898 2.044 8.885.523.988 1.548 5.038 2.277 9 2.458 13.353 4.763 21.17 8.317 28.205 1.944 3.85 4.209 8.35 5.033 10 .824 1.65 2.054 3.675 2.733 4.5.68.825 1.565 2.625 1.969 4 .403 1.375 1.529 3.4 2.503 4.5.974 1.1 2.102 3.125 2.507 4.5.406 1.375 1.245 3.12 1.865 3.878 1.492 1.822 9.108 15.526 11.54 20.762 1.057 2.277 2.375 4.419 2.928 4.761.554.342 1.291 1.92 1.64 3.507.348 1.586 1.482 3.653 2.52 4.592 1.038.939 2.172 3.006 2.52 4.592.349 1.587 1.095 3.17 1.659 3.519.564.348 1.693 2.041 2.51 3.761.817 1.72 2.789 5.378 4.383 8.128 1.593 2.75 3.798 6.8 4.9 9 1.101 2.2 2.459 4.675 3.016 5.5.557.825 1.466 2.774 2.019 4.331.553 1.557 1.565 2.648 2.249 2.423 1.904-.625 2.074-7.602.299-12.25-.873-2.285-2.231-7.819-3.019-12.297-.787-4.479-1.856-8.945-2.375-9.925-.52-.98-1.456-5.097-2.08-9.148-.624-4.052-1.6-8.235-2.168-9.297-.568-1.061-1.442-4.496-1.941-7.633-.5-3.137-1.781-9.079-2.847-13.204-3.148-12.181-7.883-32.209-10.165-43-1.113-5.263-4.331-12.467-10.158-22.742-1.484-2.617-3.629-6.558-4.766-8.758-1.137-2.2-3.356-6.25-4.932-9-1.576-2.75-4.55-8.15-6.61-12-2.06-3.85-5.019-9.25-6.576-12-1.556-2.75-3.558-6.528-4.448-8.396-.89-1.867-2.26-4.037-3.044-4.821-.784-.784-1.426-2.008-1.426-2.72 0-.711-.838-2.366-1.862-3.678-1.025-1.312-2.203-3.51-2.619-4.885-.415-1.375-1.335-3.175-2.042-4-.708-.825-3.154-5.1-5.437-9.5-2.282-4.4-4.575-8.675-5.095-9.5-.521-.825-1.385-2.738-1.921-4.25-.961-2.711-2.052-3.389-3.357-2.083M70 18.5c-.685.825-1.752 1.508-2.372 1.518-1.121.018-8.302 4.454-12.128 7.491-1.1.873-2.502 1.904-3.116 2.289-4.143 2.605-14.691 13.102-20.726 20.626C23.801 60.22 21.789 63.318 16.999 73a1905.153 1905.153 0 01-4.982 10c-.971 1.925-2.081 5.075-2.465 7-.385 1.925-1.638 6.2-2.785 9.5-1.871 5.385-2.087 8.305-2.102 28.5-.016 21.23.385 25.423 3.206 33.5.577 1.65 1.699 5.025 2.494 7.5 2.688 8.369 4.784 13.494 6.135 15 .739.825 1.645 2.704 2.012 4.176s1.527 3.455 2.578 4.405c1.05.951 1.91 2.263 1.91 2.916 0 .652.905 2.27 2.011 3.595 1.106 1.324 4.326 5.333 7.157 8.908 2.83 3.575 7.213 8.463 9.739 10.861 5.066 4.81 18.031 14.789 22.267 17.139 7.658 4.247 17.494 9 18.625 9 .704 0 2.95.841 4.991 1.869 2.04 1.028 6.604 2.37 10.142 2.982 3.538.612 6.89 1.571 7.45 2.131.628.628 9.326 1.018 22.704 1.018 17.291 0 22.266-.303 24.55-1.494 1.575-.821 3.764-1.503 4.864-1.513 4.373-.044 6.5-1.205 6.5-3.551 0-1.278-.457-2.606-1.015-2.951-.558-.345-1.661-2.172-2.449-4.059-1.302-3.115-1.811-3.432-5.52-3.432-2.248 0-5.288.787-6.757 1.75-3.802 2.491-35.518 2.614-39.303.153-1.351-.878-5.302-1.851-8.78-2.162-3.545-.317-7.067-1.237-8.015-2.095-.93-.842-3.629-1.966-5.997-2.498-2.369-.532-5.062-1.63-5.986-2.44-.923-.809-2.803-1.806-4.178-2.214-1.375-.408-3.305-1.586-4.289-2.618-.984-1.032-2.381-1.876-3.104-1.876-.723 0-2.499-1.013-3.947-2.25a2256.23 2256.23 0 00-7.361-6.25c-2.602-2.2-6.32-5.763-8.264-7.918-1.944-2.154-4.548-4.823-5.785-5.93-1.238-1.107-2.25-2.498-2.25-3.092 0-.593-.9-1.641-2-2.328-1.1-.687-2-1.85-2-2.585 0-.736-.86-2.115-1.91-3.066-1.051-.95-2.212-2.933-2.581-4.405-.369-1.472-1.535-3.481-2.59-4.465-1.056-.984-1.919-2.836-1.919-4.115 0-1.279-.885-3.451-1.967-4.826-1.081-1.376-2.254-4.474-2.606-6.885-.351-2.412-1.521-6.276-2.599-8.587-1.806-3.873-1.935-6.075-1.644-28.147.268-20.307.561-24.227 1.931-25.798.889-1.019 1.898-4.028 2.242-6.685.345-2.658 1.531-5.981 2.635-7.385C27.096 85.879 28 83.727 28 82.5c0-1.227.838-3.303 1.862-4.615 1.025-1.312 2.161-3.338 2.526-4.503.365-1.165 1.552-2.922 2.638-3.905C36.111 68.494 37 67.156 37 66.503c0-1.625 3.026-5.147 13-15.132C61.397 39.961 62.437 39 63.391 39c.451 0 2.157-1.125 3.791-2.5s3.499-2.502 4.145-2.505c.645-.002 2.608-1.349 4.361-2.993 2.8-2.624 3.118-3.446 2.611-6.745-.317-2.066-.98-4.545-1.473-5.507-1.098-2.144-5.132-2.292-6.826-.25m47.531 3.45c-1.145 1.853 3.449 3.05 11.653 3.035 8.475-.016 11.614-.884 10.385-2.873-.854-1.382-21.192-1.531-22.038-.162m-13.864 4.717c-1.486 1.485-.486 2.333 2.751 2.333 3.971 0 6.582-.836 6.582-2.107 0-1.028-8.33-1.23-9.333-.226m40.333.294c0 1.445 7.55 3.19 12.301 2.844 3.038-.222 4.273-.783 4.514-2.055.295-1.556-.617-1.75-8.242-1.75-4.819 0-8.573.421-8.573.961m18.57 3.926c-.852 1.378 1.543 2.862 5.93 3.676 2.2.408 4.588 1.573 5.307 2.589.718 1.016 2.409 1.848 3.756 1.848 1.367 0 3.411 1.105 4.624 2.5 1.195 1.375 2.752 2.5 3.458 2.5.707 0 1.766.9 2.355 2s1.683 2 2.431 2 4.838 3.487 9.088 7.75C209.465 65.724 211 67.472 211 68.82c0 .61.863 1.572 1.919 2.136 1.055.565 2.217 2.385 2.581 4.044.364 1.659 1.526 3.479 2.581 4.044 1.182.632 1.919 2.089 1.919 3.791 0 2.669 1.546 5.165 3.2 5.165.44 0 .8-1.842.8-4.094 0-3.252-.411-4.201-2-4.616-1.269-.332-2-1.364-2-2.825 0-3.298-1.007-5.465-2.54-5.465-.729 0-1.643-1.013-2.032-2.25-.388-1.237-1.768-3.241-3.067-4.452-1.299-1.211-2.361-2.869-2.361-3.683 0-.814-.851-1.75-1.892-2.081-1.041-.33-2.132-1.519-2.426-2.641-.293-1.123-1.467-2.286-2.608-2.584-1.141-.298-2.074-1.176-2.074-1.95 0-.775-1.137-1.841-2.526-2.369-1.389-.528-2.771-1.601-3.071-2.383-.301-.783-1.882-1.977-3.513-2.653-1.632-.675-3.415-2.067-3.963-3.091-.549-1.025-2.054-1.863-3.346-1.863-1.507 0-2.535-.716-2.871-2-.348-1.33-1.364-2-3.035-2-3.468 0-5.675-.972-5.675-2.5 0-.707-.712-1.559-1.582-1.893-2.381-.914-8.225-.729-8.848.28M75 37c-.589 1.1-1.929 2-2.978 2-1.05 0-2.497.829-3.215 1.841C68.088 41.854 66.375 43.275 65 44c-1.375.725-3.088 2.146-3.807 3.159C60.475 48.171 59.44 49 58.894 49 57.496 49 51 55.461 51 56.851c0 .632-.669 1.149-1.487 1.149-.817 0-2.144 1.575-2.949 3.5-.804 1.925-1.958 3.5-2.565 3.5s-1.574 1.35-2.149 3-1.628 3-2.341 3C38.052 71 37 73.169 37 76.175c0 1.171-.836 2.231-2 2.535-1.616.423-2 1.364-2 4.907 0 2.41.434 4.383.965 4.383C35.177 88 37 84.673 37 82.46c0-.919 1.125-3.008 2.5-4.642 1.375-1.634 2.5-3.596 2.5-4.36 0-.763.9-1.869 2-2.458 1.1-.589 2-1.601 2-2.25 0-1.325.821-2.278 10.75-12.485 3.871-3.979 8.211-7.68 9.644-8.225C67.827 47.495 69 46.363 69 45.525c0-.839.8-1.525 1.777-1.525.978 0 2.899-1.278 4.269-2.84 1.371-1.562 3.159-3.102 3.973-3.424 1.303-.514 1.301-.711-.019-1.645-2.131-1.506-2.787-1.357-4 .909m50.94 8.113c-1.322 2.469-2.922 18.174-2.168 21.268.284 1.166 1.014 2.742 1.622 3.503 1.229 1.537 4.371 7.357 7.522 13.93 3.987 8.318 6.095 1.381 3.075-10.123-1.127-4.295-2.467-12.197-2.978-17.559-.511-5.363-1.221-10.512-1.578-11.441-.906-2.36-4.14-2.112-5.495.422M84.024 85.471c-.931 1.122-.743 1.789.9 3.196 1.142.977 2.076 2.208 2.076 2.734C87 92.273 93.75 99 94.626 99c.206 0 .374-1.099.374-2.443 0-5.99-8.272-14.345-10.976-11.086m27.149 1.093c.18 1.53.924 2.978 1.654 3.218.935.307 1.23-.385 1-2.346-.18-1.53-.924-2.978-1.654-3.218-.935-.307-1.23.385-1 2.346m55.189.724c-2.724 1.767-5.607 3.791-6.407 4.5-.8.708-4.204 3.255-7.565 5.659-3.36 2.404-6.334 5.232-6.609 6.284-.842 3.219 2.378 8.728 5.3 9.069 2.614.304 4.631-1.789 11.919-12.372 1.375-1.996 3.175-4.403 4-5.348 8.167-9.353 7.844-13.293-.638-7.792M28.667 88.667c-1.09 1.09-.757 10.159.4 10.874.586.363 1.318.407 1.627.099.912-.912 2.147-8.891 1.598-10.322-.538-1.402-2.518-1.758-3.625-.651m196.138.861c-1 1 .348 8.877 1.78 10.4 1.16 1.234 1.423 1.215 1.941-.136 1.148-2.991.065-10.257-1.575-10.568-.852-.161-1.817-.024-2.146.304M115 97.004c0 2.202.875 5.636 1.944 7.631 1.07 1.996 2.244 6.024 2.61 8.951.552 4.421.308 5.902-1.444 8.737-2.795 4.521-2.661 7.656.537 12.54 1.823 2.786 3.611 4.246 5.75 4.698 4.104.866 7.281 3.91 8.7 8.336.636 1.982 1.732 4.278 2.436 5.103.705.825 1.79 3.412 2.413 5.75.677 2.545 1.717 4.25 2.593 4.25 2.17 0 1.873-7.272-.485-11.895-1.071-2.098-2.249-6.098-2.62-8.888-.563-4.246-.327-5.558 1.447-8.049 1.165-1.637 2.119-4.302 2.119-5.922 0-3.871-5.316-11.246-8.106-11.246-2.647 0-8.894-6.156-8.894-8.765 0-1.081-.857-3.054-1.904-4.385s-2.414-4.317-3.038-6.635c-1.509-5.605-4.058-5.738-4.058-.211m-91.046 5.923c-.026.59-.047 12.098-.047 25.573s.021 25.175.047 26c.064 2.09 2.814 1.885 3.355-.25.244-.963.387-12.994.317-26.736-.116-22.943-.269-25.014-1.876-25.324-.962-.185-1.771.146-1.796.737m205.739.768c-.261.993-.412 12.824-.334 26.291.13 22.549.281 24.513 1.908 24.827 1.658.319 1.75-1.273 1.5-25.904-.192-18.879-.594-26.352-1.432-26.631-.641-.214-1.38.424-1.642 1.417M152 118.532c0 .843.679 3.156 1.508 5.141.829 1.985 1.796 6.06 2.148 9.057.875 7.446 2.587 8.178 13.59 5.812 4.54-.976 11.854-2.209 16.254-2.739 7.933-.955 23.337-3.917 30.967-5.954 3.506-.936 3.768-1.204 2.256-2.31-.941-.688-5.425-1.56-9.964-1.939-4.54-.378-10.505-1.328-13.257-2.111-2.751-.782-9.502-1.884-15.002-2.448-5.5-.563-12.209-1.703-14.909-2.533-6.616-2.032-13.591-2.02-13.591.024m-62.911.559c-1.326.53-6.951 1.416-12.5 1.97-5.549.553-12.34 1.646-15.091 2.428-2.752.783-8.717 1.733-13.257 2.111-4.539.379-9.023 1.251-9.964 1.939-1.512 1.106-1.25 1.374 2.256 2.31 8.866 2.367 23.401 5.084 30.344 5.672 4.058.344 8.558 1.078 10 1.632 3.32 1.274 22.338 3.803 23.469 3.121.941-.568.549-3.121-1.73-11.274-.846-3.025-1.789-6.737-2.096-8.25-.506-2.492-.955-2.744-4.789-2.687-2.327.035-5.316.498-6.642 1.028m13.256 25.102l-1.845 2.856c-.55.851-1.9 3.055-3 4.897-1.1 1.841-2.787 4.057-3.75 4.923-.963.867-1.75 1.916-1.75 2.333 0 .417-1.798 3.129-3.996 6.028-3.467 4.573-5.135 8.77-3.484 8.77.671 0 6.511-3.918 13.48-9.043 3.025-2.225 7.131-5.12 9.125-6.435 4.541-2.993 5.463-6.302 3.138-11.257-1.297-2.764-2.472-3.847-4.42-4.072-1.46-.169-3.034.281-3.498 1m-73.655 13.45c-.379.38-.69 2.879-.69 5.555 0 3.538.437 5.032 1.601 5.479 2.242.86 3.314-1.374 2.684-5.591-.565-3.781-2.431-6.607-3.595-5.443m196.948 1.052c-1.778 6.039-1.826 9.296-.146 9.94 2.424.93 3.574-1.376 3.269-6.557-.268-4.538-2.174-6.604-3.123-3.383M162 160.471c0 .856.45 2.338 1 3.293.549.955 1.443 2.985 1.985 4.512.542 1.526 1.779 3.057 2.75 3.402.971.344 2.552 1.302 3.515 2.129 1.57 1.348 1.75 1.328 1.75-.192 0-3.011-3.761-9.041-7.428-11.908-2.703-2.113-3.572-2.414-3.572-1.236m-18.827 8.093c.18 1.53.924 2.978 1.654 3.218.935.307 1.23-.385 1-2.346-.18-1.53-.924-2.978-1.654-3.218-.935-.307-1.23.385-1 2.346m-23.145 1.862c-1.367 3.596-1.337 4.015.915 12.636 1.068 4.091 2.416 12.076 2.995 17.744 1.104 10.816 2.19 14.194 4.562 14.194 2.342 0 3.445-3.326 4.51-13.593l1.008-9.722-3.759-7.309c-2.068-4.02-4.661-9.088-5.764-11.264-2.772-5.47-3.29-5.781-4.467-2.686M33 174.094c0 3.252.411 4.201 2 4.616 1.409.369 2 1.364 2 3.371 0 1.82.718 3.233 1.988 3.913 1.094.585 2.27 2.186 2.614 3.558.345 1.372 1.411 3.047 2.369 3.721.958.675 2.047 2.191 2.419 3.369.372 1.178 1.561 2.374 2.643 2.656 1.082.283 1.967 1.202 1.967 2.041s.877 1.805 1.949 2.145c1.072.34 2.227 1.495 2.567 2.567.34 1.072 1.248 1.949 2.016 1.949.769 0 1.876.895 2.462 1.988.585 1.094 2.176 2.267 3.535 2.609 1.359.341 2.471 1.202 2.471 1.914 0 .711 1.421 1.789 3.158 2.394 1.737.606 3.787 2 4.557 3.098.937 1.339 2.534 1.997 4.842 1.997 2.776 0 3.443.387 3.443 2 0 1.733.667 2 5 2 2.75 0 5-.434 5-.965 0-1.393-3.457-3.035-6.389-3.035-1.386 0-3.645-1.125-5.02-2.5-1.375-1.375-3.312-2.5-4.305-2.5-.993 0-2.367-.9-3.054-2-.687-1.1-1.923-2-2.747-2-.824 0-2.476-1.125-3.672-2.5-1.195-1.375-2.716-2.5-3.378-2.5-.663 0-1.942-1.125-2.843-2.5s-2.303-2.5-3.115-2.5c-.812 0-1.477-.476-1.477-1.058 0-.582-2.059-3.088-4.576-5.569-2.517-2.482-5.036-5.831-5.598-7.442-.562-1.612-1.422-2.931-1.91-2.931-.489 0-1.547-1.575-2.352-3.5-.804-1.925-2.16-3.5-3.013-3.5-1.088 0-1.551-.985-1.551-3.3 0-3.127-1.445-5.7-3.2-5.7-.44 0-.8 1.842-.8 4.094m187.607-2.512c-.334.87-.607 2.654-.607 3.965 0 1.315-.849 2.837-1.895 3.397-1.042.557-2.369 2.373-2.948 4.035-.579 1.662-1.52 3.021-2.092 3.021-.571 0-1.661 1.463-2.422 3.25-1.394 3.275-15.762 18.75-17.408 18.75-.488 0-1.943 1.125-3.235 2.5-1.292 1.375-3.14 2.5-4.107 2.5-.967 0-2.03.855-2.361 1.901-.332 1.045-1.713 2.178-3.068 2.519-2.85.715-3.268 3.058-.72 4.035 1.195.459 2.389-.138 3.788-1.893 1.124-1.409 2.788-2.562 3.699-2.562s2.271-.879 3.024-1.953c.752-1.074 2.577-2.413 4.056-2.975 1.479-.562 2.689-1.709 2.689-2.547 0-.841.867-1.525 1.933-1.525 1.063 0 2.211-.877 2.551-1.949.34-1.072 1.495-2.227 2.567-2.567 1.072-.34 1.949-1.099 1.949-1.687 0-.587 1.13-2.244 2.511-3.682a974.766 974.766 0 004.5-4.72c1.094-1.158 1.989-2.764 1.989-3.57 0-.805 1.125-2.443 2.5-3.638 1.375-1.196 2.5-3.249 2.5-4.564 0-1.549.704-2.574 2-2.913 1.589-.415 2-1.364 2-4.616 0-4.213-2.134-5.793-3.393-2.512M92.675 227.658c-1.55 1.551 1.861 3.342 6.366 3.342 6.333 0 8.385-.782 6.862-2.617-1.18-1.422-11.941-2.012-13.228-.725M151 229c0 .55.675 1 1.5 1s1.5-.45 1.5-1-.675-1-1.5-1-1.5.45-1.5 1m-40.46 3.347c-3.311 2.421.182 3.022 17.915 3.082 17.597.059 21.408-.594 18.005-3.082-2.629-1.923-33.291-1.923-35.92 0" fill="#1976D2" fill-rule="evenodd"/><path fill-opacity=".985" d="M109.713 7.379c-7.964.757-12.064 1.57-12.642 2.505C95.245 12.84 99.07 20 102.476 20c.601 0 3.654-.9 6.784-2 7.505-2.638 30.083-2.878 37.388-.398 2.595.881 7.382 1.978 10.639 2.439 3.256.46 6.696 1.539 7.645 2.398.949.858 2.554 1.561 3.568 1.561 3.369 0 19.473 8.519 23.584 12.475.871.839 2.066 1.525 2.656 1.525.98 0 19.742 18.189 23.26 22.55 2.812 3.486 8 11.88 8 12.944 0 .584.9 1.832 2 2.774s2 2.658 2 3.814c0 1.157.849 3.182 1.887 4.502 1.038 1.319 2.192 4.09 2.565 6.157.372 2.068 1.502 5.559 2.509 7.759 4.549 9.934 4.349 54.308-.277 61.676-.803 1.278-1.772 4.1-2.154 6.271-.382 2.171-1.557 5.044-2.612 6.385-1.055 1.341-1.918 3.216-1.918 4.168s-.838 2.803-1.862 4.115c-1.025 1.312-2.161 3.338-2.526 4.503-.365 1.165-1.552 2.922-2.638 3.905-1.085.983-1.974 2.214-1.974 2.735 0 1.896-13.249 16.773-19.297 21.668-3.411 2.762-7.287 5.934-8.611 7.048-1.325 1.114-2.943 2.026-3.595 2.026-.653 0-1.965.86-2.916 1.91-.95 1.051-2.82 2.184-4.155 2.519-2.674.671-3.176 3.468-1.441 8.032 1.342 3.53 3.348 4.062 6.696 1.776a387.782 387.782 0 017.319-4.81c18.28-11.724 34.651-29.696 42.875-47.067 1.078-2.277 2.447-4.441 3.042-4.809.596-.368 1.097-1.655 1.114-2.86.017-1.205 1.138-4.441 2.491-7.191 1.353-2.75 2.464-6.221 2.469-7.713.005-1.492.909-4.996 2.009-7.787 1.774-4.5 2-7.432 2-25.911 0-16.361-.336-21.778-1.563-25.213-.859-2.407-2.014-6.777-2.566-9.711s-1.872-6.759-2.934-8.5c-1.061-1.741-1.931-4.117-1.933-5.28-.002-1.163-.876-3.224-1.942-4.579-1.066-1.355-2.231-3.633-2.59-5.061-.359-1.429-1.511-3.376-2.562-4.326-1.05-.951-1.91-2.3-1.91-2.997 0-.698-1.125-2.606-2.5-4.24-1.375-1.634-2.5-3.223-2.5-3.531 0-.308-1.012-1.626-2.25-2.929a2251.715 2251.715 0 01-7.798-8.296c-3.052-3.259-7.671-7.726-10.264-9.926a3186.63 3186.63 0 01-7.348-6.25c-1.448-1.238-3.064-2.25-3.592-2.25-.527 0-2.296-1.125-3.93-2.5-1.634-1.375-3.551-2.5-4.26-2.5-.708 0-2.361-.841-3.673-1.87-1.312-1.028-3.816-2.182-5.566-2.564-1.749-.382-3.688-1.305-4.307-2.052-.62-.747-3.014-1.671-5.32-2.054-2.305-.383-5.542-1.393-7.192-2.244-3.3-1.703-24.256-4.153-34.5-4.034-3.575.041-11.804.58-18.287 1.197M84 15.05c0 1.127.625 3.264 1.39 4.75.764 1.485 1.882 5.891 2.484 9.79.602 3.9 1.733 8.625 2.513 10.5.78 1.876 1.746 6.11 2.146 9.41.401 3.3 1.57 8.154 2.598 10.787C96.159 62.92 97 66.644 97 68.562c0 1.918.877 5.984 1.949 9.035 1.073 3.05 2.233 7.651 2.58 10.225.346 2.573 1.464 7.378 2.483 10.678 1.019 3.3 2.161 8.475 2.538 11.5.376 3.025 1.254 6.625 1.95 8s1.571 4.975 1.943 8c.634 5.138 3.19 11.093 9.755 22.721a329.413 329.413 0 014.765 8.779c1.136 2.2 3.165 5.8 4.509 8 2.313 3.787 4.717 8.227 8.123 15 .83 1.65 1.941 3.675 2.47 4.5.528.825 1.874 3.3 2.99 5.5 1.117 2.2 3.13 5.8 4.473 8 1.344 2.2 3.369 5.8 4.501 8 1.131 2.2 3.178 6.025 4.548 8.5 1.369 2.475 4.407 8.069 6.75 12.431 5.659 10.534 7.165 11.006 6.204 1.946-.401-3.782-1.409-8.677-2.24-10.877-.832-2.2-2.101-7.375-2.821-11.5-.721-4.125-2.001-9.3-2.846-11.5-.845-2.2-1.556-5.477-1.58-7.282-.024-1.804-.944-5.952-2.043-9.216-1.1-3.264-2.412-8.762-2.916-12.218-.504-3.456-1.57-7.859-2.369-9.784-.799-1.925-1.733-6.024-2.076-9.109-.344-3.085-1.27-7.155-2.059-9.043-.789-1.889-1.751-6.225-2.137-9.636-.418-3.695-1.433-7.046-2.511-8.29-.996-1.147-2.088-3.353-2.428-4.901-.34-1.547-1.493-3.605-2.562-4.572-1.069-.968-1.943-2.529-1.943-3.469 0-.941-.891-2.843-1.98-4.227-1.089-1.385-2.466-3.583-3.06-4.885-.595-1.303-2.38-4.618-3.969-7.368-1.588-2.75-3.805-6.8-4.927-9-1.121-2.2-2.594-4.9-3.272-6-4.918-7.979-5.792-9.613-5.792-10.824 0-.751-.874-2.157-1.943-3.125-1.069-.967-2.229-3.057-2.577-4.643-.349-1.587-1.086-3.165-1.64-3.507-.553-.342-1.884-2.484-2.957-4.761-1.074-2.277-3.266-6.39-4.872-9.14-1.606-2.75-4.552-8.228-6.547-12.174-1.995-3.946-4.209-7.398-4.92-7.671-.71-.272-1.594-2.106-1.963-4.075C85.862 12.749 84 11.645 84 15.05m-15.508 5.877c-2.205.982-4.623 2.525-5.373 3.429-.75.904-1.918 1.644-2.595 1.644-.678 0-2.416 1.012-3.864 2.25a2952.45 2952.45 0 01-7.348 6.25c-2.593 2.2-7.212 6.667-10.264 9.926-3.051 3.26-6.561 6.993-7.798 8.296-1.238 1.303-2.25 2.621-2.25 2.929 0 .308-1.125 1.897-2.5 3.531-1.375 1.634-2.5 3.542-2.5 4.24 0 .697-.86 2.046-1.91 2.997-1.051.95-2.203 2.897-2.562 4.326-.359 1.428-1.524 3.706-2.59 5.061-1.066 1.355-1.94 3.416-1.942 4.579-.002 1.163-.876 3.547-1.943 5.296-1.067 1.75-2.433 5.899-3.035 9.221-.602 3.321-1.753 7.613-2.557 9.536C6.34 107.121 6 112.724 6 128.493c0 17.994.249 21.267 2 26.247 1.1 3.13 2.004 6.831 2.009 8.225.005 1.394 1.116 4.785 2.469 7.535 1.353 2.75 2.474 5.491 2.491 6.09.056 1.969 7.392 15.354 13.249 24.175 6.136 9.242 21.984 24.095 33.782 31.662a441.385 441.385 0 017.019 4.589c1.386.936 3.636 2.042 5 2.457 1.365.415 3.884 1.604 5.599 2.641 1.715 1.037 3.972 1.886 5.015 1.886 1.043 0 3.545.883 5.559 1.963 2.033 1.09 7.586 2.449 12.485 3.056 4.853.601 10.13 1.742 11.727 2.537 3.304 1.643 27.596 2.107 27.596.527 0-1.039 8.611-3.083 12.984-3.083 1.587 0 3.981-.416 5.32-.925l2.434-.926-2.119-4.574c-2.357-5.087-3.576-5.461-10.119-3.104-5.831 2.101-38.443 2.036-44-.087-2.2-.841-6.7-2.083-10-2.76-3.3-.677-7.125-1.95-8.5-2.829-1.375-.879-3.925-1.895-5.666-2.258-1.742-.363-3.399-1.264-3.683-2.004-.284-.739-1.85-1.637-3.48-1.995-1.63-.358-3.755-1.526-4.722-2.595-.968-1.069-2.293-1.943-2.946-1.943-.652 0-2.27-.912-3.595-2.026-1.324-1.114-5.2-4.286-8.611-7.048C49.249 209.031 36 194.154 36 192.258c0-.521-.9-1.763-2-2.758-1.1-.995-2-2.328-2-2.961s-1.125-2.675-2.5-4.539c-1.375-1.864-2.5-4.14-2.5-5.059 0-.919-.835-2.744-1.855-4.056-1.02-1.312-2.179-4.185-2.574-6.385s-1.393-5.046-2.217-6.324c-4.623-7.175-4.897-52.178-.373-61.222.976-1.95 2.089-5.409 2.474-7.686.384-2.277 1.517-5.083 2.517-6.235.999-1.153 2.11-3.657 2.468-5.565.358-1.907 1.074-3.468 1.592-3.468s1.555-1.463 2.306-3.25c1.327-3.158 4.637-8.408 7.671-12.164C43.089 55.533 61.459 38 62.672 38c.765 0 1.645-.661 1.955-1.47.31-.808 2.096-2.024 3.968-2.701C70.468 33.152 72 32.227 72 31.774c0-.453 1.125-1.251 2.5-1.774 2.729-1.038 3.247-3.904 1.525-8.435-1.134-2.981-2.092-3.062-7.533-.638m84.258 6.735c.688.278 1.813.278 2.5 0 .688-.277.125-.504-1.25-.504s-1.937.227-1.25.504m14.063 5.021c.721.289 1.584.253 1.916-.079.332-.332-.258-.568-1.312-.525-1.165.048-1.402.285-.604.604m-40.715 20.466c-1.932 5.541-1.334 12.211 1.6 17.866 2.494 4.809 4.679 6.941 5.881 5.74.628-.629-1.409-18.054-2.689-23.005-1.184-4.575-3.314-4.842-4.792-.601m-19.491 20.433c-1.086 2.829-.646 4.94 1.393 6.686 1.478 1.265 2.002 2.955 2.007 6.472.004 3.067.713 5.827 1.993 7.76 1.093 1.65 1.99 4.357 1.993 6.015.004 1.658.899 4.679 1.989 6.713 3.179 5.931 3.575 10.83 1.104 13.675-3.205 3.692-2.848 11.612.71 15.767 1.494 1.743 3.886 3.463 5.316 3.822 3.41.856 8.887 5.907 8.893 8.202.003.993 1.114 3.606 2.469 5.806 1.355 2.2 2.478 5.012 2.495 6.25.017 1.238.965 3.184 2.106 4.325s2.33 3.648 2.642 5.57c.348 2.14 1.482 4.094 2.925 5.04 1.297.85 2.365 2.506 2.373 3.68.009 1.174.459 2.81 1 3.635.876 1.333 1.094 1.333 1.97 0 1.513-2.305 1.208-4.471-.985-7-1.372-1.582-2.002-3.748-2.007-6.903-.004-2.904-.738-5.702-1.993-7.597-1.093-1.65-1.99-4.357-1.993-6.015-.004-1.658-.841-4.583-1.86-6.5-3.097-5.822-3.488-10.281-1.163-13.237 1.432-1.821 2.016-4.064 2.016-7.742 0-4.459-.447-5.653-3.22-8.592-1.771-1.878-4.006-3.414-4.966-3.414-2.659 0-7.885-5.673-9.023-9.796-.558-2.02-1.864-4.753-2.903-6.073-1.038-1.32-1.888-3.465-1.888-4.766 0-1.301-.934-3.299-2.075-4.44-1.141-1.141-2.33-3.648-2.642-5.57-.348-2.14-1.482-4.094-2.925-5.04-1.297-.85-2.358-2.356-2.358-3.348 0-2.412-1.029-4.967-2-4.967-.432 0-1.059.712-1.393 1.582M134 81.441c0 .793.45 1.719 1 2.059.55.34 1-.309 1-1.441 0-1.132-.45-2.059-1-2.059s-1 .648-1 1.441m-45.49 8.543c-.737 1.193.199 3.016 1.549 3.016 1.217 0 1.225-2.707.01-3.457-.512-.317-1.213-.118-1.559.441m75.99.204c-1.1.62-4.025 2.764-6.5 4.765-2.475 2.001-5.703 4.393-7.174 5.316-3.279 2.057-4.194 4.633-2.876 8.099.764 2.01 1.688 2.632 3.909 2.632 1.87 0 3.125-.624 3.518-1.75.335-.963 1.987-3.55 3.671-5.75 1.684-2.2 3.982-5.463 5.106-7.25 1.124-1.787 2.449-3.25 2.945-3.25.495 0 .901-.9.901-2 0-2.268-.65-2.418-3.5-.812M25.195 111.5c.02 1.65.244 2.204.498 1.231.254-.973.237-2.323-.037-3-.274-.677-.481.119-.461 1.769m206.037.5c0 1.925.206 2.713.457 1.75.252-.963.252-2.537 0-3.5-.251-.963-.457-.175-.457 1.75m-76.752 8.601c.444 1.045 1.232 4.374 1.749 7.399 1.804 10.539 1.532 10.001 5.04 9.989 1.777-.006 5.325-.646 7.883-1.423 2.559-.776 8.409-1.707 13-2.068 4.592-.361 10.598-1.251 13.348-1.978 2.75-.726 7.25-1.623 10-1.992 12.276-1.648 12.185-3.08-.254-3.986-4.81-.351-12.361-1.516-16.778-2.59-4.418-1.074-10.043-1.972-12.5-1.996-2.458-.024-6.493-.488-8.968-1.032-2.475-.544-6.486-1.266-8.914-1.605-4.06-.567-4.349-.464-3.606 1.282M89.5 121c-1.65.42-5.235.817-7.968.882-2.732.065-8.582.996-13 2.07-4.417 1.074-11.968 2.239-16.778 2.59-12.439.906-12.53 2.338-.254 3.986 2.75.369 7.25 1.263 10 1.987 2.75.724 8.6 1.607 13 1.962s11.491 1.549 15.757 2.653 8.766 1.864 10 1.689c2.489-.354 2.562-1.24.765-9.319a915.696 915.696 0 01-1.586-7.25c-.38-1.805-1.113-2.227-3.705-2.132-1.777.065-4.581.462-6.231.882m141.695 24.5c.02 1.65.244 2.204.498 1.231.254-.973.237-2.323-.037-3-.274-.677-.481.119-.461 1.769m-206.037.5c0 1.375.227 1.938.504 1.25.278-.687.278-1.812 0-2.5-.277-.687-.504-.125-.504 1.25m77.198 1.689c-1.701 2.7-5.022 7.183-7.621 10.285-2.779 3.317-6.7 9.607-6.717 10.776-.023 1.625 1.657 1.61 2.682-.024.44-.701 1.925-2.037 3.3-2.969 1.375-.933 4.3-3.05 6.5-4.705 2.2-1.655 5-3.453 6.222-3.995 2.945-1.307 3.994-5.691 2.147-8.981-2.011-3.583-4.411-3.725-6.513-.387m63.798 19.863c.191.98.951 1.984 1.692 2.23.86.287 1.22-.194 1-1.334-.191-.98-.951-1.984-1.692-2.23-.86-.287-1.22.194-1 1.334m-44.853 7.056a487.13 487.13 0 001.605 7.645c.569 2.614 1.44 8.798 1.936 13.743 1.012 10.082 2.469 13.121 5.054 10.537 1.051-1.051 1.689-3.976 1.936-8.886.339-6.713.109-7.782-2.781-12.902-1.732-3.07-3.803-6.124-4.601-6.786-.797-.662-1.45-2.022-1.45-3.022 0-1.001-.51-2.134-1.134-2.52-.79-.488-.961.179-.565 2.191m11.449 59.054c.688.278 1.813.278 2.5 0 .688-.277.125-.504-1.25-.504s-1.937.227-1.25.504m38.265 6.088c-.008 1.787.435 3.25.985 3.25 1.27 0 1.27-3.035 0-5-.736-1.138-.973-.716-.985 1.75" fill="#1976D2" fill-rule="evenodd"/></svg>