<svg xmlns="http://www.w3.org/2000/svg" width="256" height="256"><path fill-opacity=".016" d="M0 128.004v128.004l128.25-.254 128.25-.254.254-127.75L257.008 0H0v128.004m.485.496c0 70.4.119 99.053.265 63.672.146-35.38.146-92.98 0-128C.604 29.153.485 58.1.485 128.5" fill="#1976D2" fill-rule="evenodd"/><path fill-opacity=".195" d="M120.11 4.489C118.95 6.958 118 9.253 118 9.588c0 .648-1.162 3.39-5.38 12.689-1.441 3.178-2.62 6.173-2.62 6.656 0 .483-.858 2.608-1.907 4.722-1.049 2.115-2.454 5.307-3.122 7.095-1.083 2.901-3.971 4.622-3.971 2.367 0-.486-.787-1.148-1.75-1.471-1.841-.618-2.719-1.156-10.44-6.396-2.634-1.787-5.207-3.25-5.716-3.25-.51 0-1.077-.338-1.261-.75-.473-1.064-11.942-8.475-12.402-8.014-.55.55 1.431 12.27 2.589 15.316.539 1.418.98 4.124.98 6.013 0 1.889.45 3.435 1 3.435s1 1.71 1 3.8.412 4.227.916 4.75c.503.522 1.066 2.525 1.25 4.45l.334 3.5-7.5.612c-4.125.336-15.375 1.193-25 1.903-17.642 1.301-20.893 2.082-17.912 4.302 1.654 1.232 9.59 7.964 18.49 15.683 2.853 2.475 7.491 6.451 10.305 8.835C58.697 98.22 61 100.777 61 101.517c0 .741-1.462 2.375-3.25 3.632-1.788 1.257-3.824 2.842-4.525 3.521-.701.68-3.396 2.945-5.989 5.033-2.594 2.089-5.62 4.632-6.726 5.652-1.105 1.02-3.023 2.534-4.26 3.365-3.173 2.13-2.812 2.993 1.5 3.581 2.063.282 5.1.739 6.75 1.017 1.65.278 9.001.832 16.335 1.233 14.105.77 15.861 1.504 13.323 5.568-.637 1.02-1.158 2.991-1.158 4.381 0 1.39-.429 3.309-.954 4.264-.525.955-1.401 4.211-1.948 7.236-1.558 8.626-2.184 11.349-3.105 13.5-.471 1.1-1.093 3.35-1.381 5-.289 1.65-1.07 5.587-1.736 8.75-.666 3.162-.942 6.018-.613 6.346.328.328 2.548-.684 4.933-2.25 6.606-4.335 8.173-5.3 9.804-6.034 1.331-.599 14.457-8.71 19.567-12.091 1.063-.704 2.72-1.543 3.683-1.867.963-.323 1.75-.985 1.75-1.471 0-.485 1.125-.883 2.5-.883 1.566 0 2.5.566 2.5 1.514 0 .832.412 2.295.916 3.25 1.838 3.485 4.084 9.066 4.084 10.151 0 .612.412 1.894.916 2.849 1.338 2.535 3.758 8.392 4.54 10.986.723 2.396 3.544 3.143 3.544.938 0-.722.841-3.084 1.868-5.25 2.08-4.384 4.351-9.545 6.68-15.188.852-2.062 1.977-4.531 2.5-5.486.524-.955.952-2.225.952-2.822s.682-1.767 1.515-2.6c1.354-1.354 2.361-.973 9.445 3.571 4.361 2.798 8.404 5.087 8.985 5.087.58 0 1.055.353 1.055.785 0 .432 2.473 2.119 5.497 3.75 3.023 1.631 5.498 3.303 5.5 3.715.001.412.487.75 1.078.75.591 0 4.205 2.025 8.031 4.5 3.826 2.475 7.167 4.5 7.425 4.5.837 0 .495-6.84-.459-9.203-.51-1.263-1.672-5.897-2.582-10.297-.91-4.4-2.067-8.781-2.572-9.736-.505-.955-.918-3.066-.918-4.691s-.406-3.206-.902-3.512c-.495-.307-1.215-3.259-1.598-6.561s-1.103-6.254-1.598-6.561c-2.54-1.57.203-2.255 11.348-2.836 6.738-.351 15.332-.968 19.099-1.371l6.849-.732-4.849-4.514c-2.667-2.482-8.785-7.882-13.596-12-4.812-4.117-8.749-7.771-8.75-8.12-.003-.592 3.649-3.998 10.579-9.866C205.069 83.426 208.564 80.448 209 80.006c.275-.278 3.117-2.704 6.316-5.39 3.199-2.686 5.449-5.208 5-5.603-.717-.633-18.316-2.128-44.085-3.746-4.548-.286-8.512-.913-8.809-1.393-.297-.481-.063-.874.519-.874.582 0 1.059-1.575 1.059-3.5s.403-3.5.895-3.5 1.096-1.687 1.342-3.75c.548-4.601 2.688-13.136 3.881-15.486.485-.955.882-3.093.882-4.75 0-1.658.45-3.014 1-3.014 1.238 0 1.325-2.681.111-3.431-.489-.302-8.025 3.761-16.748 9.029-10.768 6.505-16.292 9.306-17.208 8.728-1.298-.819-3.737-6.386-4.853-11.076-.294-1.237-.933-2.25-1.419-2.25-.485 0-.883-.681-.883-1.514 0-.832-.395-2.295-.878-3.25-2.124-4.201-4.122-9.421-4.122-10.77 0-.806-.45-1.466-1-1.466s-1-.681-1-1.514c0-.832-.412-2.295-.917-3.25-.504-.955-1.458-3.198-2.121-4.986-1.646-4.44-3.352-4.079-5.852 1.239m-.566 16.009c-.951 3.024-2.11 5.734-2.577 6.022-.466.288-.372 1.887.208 3.553.581 1.666.779 3.306.441 3.645-.339.338-.616.09-.616-.551 0-.642-.675-1.167-1.5-1.167-1.646 0-2.059 2.537-.563 3.461 1.195.739 4.115 6.539 3.291 6.539-.34 0-1.881-1.209-3.423-2.687-3.019-2.893-3.967-1.421-1.426 2.214 2.937 4.201 5.545 9.473 4.687 9.473-.495 0-2.504-1.913-4.463-4.25-5.191-6.19-4.609-2.34.958 6.345 2.509 3.914 4.285 7.392 3.947 7.73-.629.629-9.432-8.725-9.481-10.075-.042-1.158-2.027-.887-2.027.277 0 .564 2.475 4.927 5.5 9.695 5.831 9.191 7.346 13.659 2.75 8.113a359.257 359.257 0 00-5.023-5.917c-1.25-1.429-2.901-3.457-3.668-4.507-.768-1.049-1.711-1.593-2.096-1.208-.385.386 2.705 6.11 6.867 12.722 4.162 6.611 7.247 12.218 6.855 12.46-.723.447-1.943-.875-11.33-12.275-2.894-3.514-5.42-5.916-5.612-5.338-.193.578 4.184 7.905 9.728 16.282 11.602 17.533 12.527 21.44 1.966 8.304-.859-1.068-4.88-6.086-8.935-11.151C97.627 70.245 95 67.687 95 69.442c0 .523 8.2 13.831 8.97 14.558.292.275 1.343 1.963 2.337 3.75 2.661 4.787.394 3.952-3.99-1.471-6.936-8.58-7.788-9.605-11.207-13.484-3.872-4.394-5.571-4.263-2.289.177C90.019 74.593 91 76.387 91 76.96c0 .572.36 1.04.801 1.04.71 0 5.199 8.261 5.199 9.567 0 .865-4.392-3.752-9.575-10.067-2.709-3.3-5.362-6.313-5.896-6.696-2.262-1.62-1.594.551 1.921 6.246 3.789 6.139 4.062 9.571.393 4.95-6.242-7.863-10.131-11.94-10.923-11.45-.794.49 1.488 5.131 3.172 6.45.351.275.96 1.625 1.354 3 .567 1.98-.231 1.46-3.838-2.5-2.505-2.75-4.566-5.338-4.581-5.75-.015-.412-.692-.75-1.506-.75-1.239 0-1.283.445-.27 2.75.665 1.513 1.654 3.063 2.2 3.446.545.382.675 1.011.29 1.397-.386.386-2.205-.94-4.042-2.946-3.705-4.044-6.212-4.839-5.199-1.647.792 2.496-.26 2.571-2.383.17-1.56-1.765-2.931-1.904-12.867-1.306-4.37.264-2.143 1.667 7.001 4.413 5.087 1.527 10.03 3.215 10.985 3.75.955.535 2.424.973 3.264.973.84 0 2.309.418 3.264.929.955.512 9.161 3.244 18.236 6.072 9.075 2.828 17.4 5.498 18.5 5.934 1.1.435 4.25 1.53 7 2.433 9.261 3.041 8.409 7.094 8.478-40.368.034-23.1-.111-42-.321-42-.211 0-1.161 2.474-2.113 5.498m-41.84 14.845A27.992 27.992 0 0079.19 37.5c3.504 4.494 5.964 7.902 9.746 13.5 2.415 3.575 5.079 7.306 5.92 8.292 1.457 1.706 1.589 1.683 2.801-.5 1.348-2.429 1.751-8.565.736-11.21C97.391 44.97 96 45.794 96 49c0 1.65-.45 3-1 3s-1-1.83-1-4.067c0-3.489-.261-3.985-1.833-3.486-1.32.419-2.17-.157-3.037-2.062-.663-1.454-1.453-2.395-1.757-2.091-.304.304-1.878-.715-3.499-2.264-3.047-2.912-7.489-4.846-6.17-2.687M167 36c0 .55-.609 1-1.354 1-.745 0-2.576 1.132-4.069 2.516-1.493 1.384-3.113 2.271-3.599 1.971-.486-.301-1.561.705-2.39 2.233-.83 1.529-1.526 2.218-1.548 1.53-.081-2.545-2.043-1.151-2.11 1.5-.039 1.513-.457 3.65-.93 4.75-.713 1.659-.871 1.428-.93-1.357-.055-2.635-.41-3.227-1.652-2.75-.87.334-1.77.607-2 .607-1.556 0 1.618 11.179 3.336 11.751.531.177 2.941-2.42 5.355-5.771 2.415-3.352 5.127-6.978 6.026-8.058.9-1.08 2.7-3.526 4-5.436 1.301-1.91 2.703-3.475 3.115-3.479.412-.004.75-.457.75-1.007 0-.55-.45-1-1-1s-1 .45-1 1m-28.12 19.25a157.035 157.035 0 01-2.653 4.75c-.967 1.655-.416 1.317 1.629-1 1.7-1.925 3.102-4.062 3.117-4.75.041-1.891-.768-1.505-2.093 1m2 8.382a358.33 358.33 0 00-4.394 6.868c-1.841 2.983-1.84 2.989.111 1 3.776-3.847 7.588-9.445 7.208-10.585-.211-.633-1.527.59-2.925 2.717m-.972 15.618c-4.004 5.638-7.536 10.475-7.85 10.75-1.592 1.397-6.201 8.191-5.817 8.574.401.402 11.391-2.93 34.759-10.538a2912.043 2912.043 0 0122-7.012c7.425-2.334 14.281-4.645 15.236-5.134.955-.49 2.643-.89 3.75-.89 3.079 0 2.397-1.981-.736-2.14-1.512-.077-4.55-.253-6.75-.391-3.153-.197-4.598.309-6.826 2.39l-2.827 2.641.685-2.75c.933-3.746-.849-3.546-4.463.499-3.537 3.959-5.135 3.056-2.11-1.191 3.329-4.676-.139-4.019-3.658.692-3.441 4.607-4.965 6.25-5.797 6.25-1.006 0 .566-4.226 2.695-7.25 1.603-2.276 1.675-2.75.419-2.75-.835 0-1.878.629-2.318 1.397-1.455 2.542-10.556 12.681-10.991 12.245-.529-.529 2.394-6.034 5.55-10.454 1.298-1.817 2.049-3.613 1.671-3.991-.67-.67-3.888 2.644-11.984 12.342-5.738 6.873-5.542 3.715.344-5.556 5.996-9.445 4.637-10.493-2.172-1.675-7.361 9.531-12.531 15.213-13.218 14.525-.343-.343 2.104-4.877 5.438-10.076 3.334-5.199 6.062-9.746 6.062-10.105 0-.358-.858-.652-1.906-.652-1.277 0-4.308 3.383-9.186 10.25m34.905 18.433c.721.289 1.584.253 1.916-.079.332-.332-.258-.568-1.312-.525-1.165.048-1.402.285-.604.604m-94 3c.721.289 1.584.253 1.916-.079.332-.332-.258-.568-1.312-.525-1.165.048-1.402.285-.604.604m84 0c.721.289 1.584.253 1.916-.079.332-.332-.258-.568-1.312-.525-1.165.048-1.402.285-.604.604m-91.371 2.223c.308.498 1.46.671 2.559.383 2.752-.719 2.504-1.289-.56-1.289-1.407 0-2.307.408-1.999.906m96.827-.213c.973.254 2.323.237 3-.037.677-.274-.119-.481-1.769-.461-1.65.02-2.204.244-1.231.498M113 105.191c-3.575 1.108-7.4 2.364-8.5 2.791-1.1.426-6.049 2.094-10.998 3.706-6.41 2.088-9.097 3.445-9.342 4.721-.445 2.31 1.79 1.931 17.125-2.901 6.857-2.161 8.883-1.986 5.715.492-1.375 1.076-3.261 1.966-4.191 1.978-.93.012-1.948.437-2.261.945-.314.508-2.014 1.24-3.777 1.627-1.763.387-3.895 1.045-4.738 1.46-2.116 1.044-6.171 2.692-8.346 3.392-.998.321-1.533 1.038-1.19 1.594.418.676 1.242.679 2.498.007 1.03-.552 2.938-1.003 4.239-1.003 1.301 0 2.793-.397 3.316-.883.522-.486 3.2-1.191 5.95-1.567 4.452-.608 4.781-.531 3 .706-1.1.763-3.575 1.963-5.5 2.667-14.819 5.415-19.783 8.76-9.75 6.569 2.888-.631 6.068-1.509 7.067-1.952 1.087-.482 2.273-.35 2.95.327.844.844.572 1.133-1.067 1.133-1.21 0-2.2.45-2.2 1s-.681 1-1.514 1c-.832 0-2.52.52-3.75 1.156-4.692 2.426-5.754 2.844-7.222 2.844-.833 0-1.514.644-1.514 1.43 0 1.138.664 1.24 3.243.5 4.24-1.216 7.757-1.184 7.757.07 0 .55-.681 1-1.514 1-.832 0-2.295.421-3.25.935-.955.513-3.199 1.523-4.986 2.244-4.499 1.813-4.072 3.136.75 2.321 6.596-1.114 4.63 1.216-3.25 3.852-2.389.799-2.214 2.648.25 2.648 1.1 0 2 .45 2 1s-.605 1-1.345 1c-1.584 0-4.848 3.361-4.492 4.625.136.481-.329 2.559-1.033 4.617-2.5 7.309-.59 6.617 5.611-2.035a6349.263 6349.263 0 0116.5-22.855c21.918-30.227 24.939-34.505 24.605-34.835-.19-.187-3.271.566-6.846 1.674m-28.946.405c-6.124 1.646-6.687 1.952-4.847 2.641.711.267 3.993-.554 7.293-1.824 6.794-2.616 5.657-2.995-2.446-.817m40.174 17.349c.19 13.543.62 19.506 1.425 19.774 1.315.437 1.98-3.184 2.931-15.956.358-4.805.98-8.532 1.384-8.283.403.249 1.055 5.081 1.448 10.737.393 5.655 1.084 12.083 1.535 14.283.812 3.965.82 3.971.934.693.211-6.075 2.413-17.295 3.233-16.475.445.445.938 5.717 1.096 11.714.2 7.624.662 11.03 1.536 11.32.927.307 1.25-1.547 1.25-7.169 0-4.171.392-7.583.871-7.583.48 0 1.437 4.275 2.129 9.5s1.591 9.5 2 9.5c.408 0 1.047-2.7 1.42-6 .923-8.156 2.58-7.592 2.58.878 0 4.893.433 7.236 1.5 8.122 1.286 1.067 1.5.736 1.5-2.319 0-1.959.45-3.841 1-4.181.603-.372 1 .962 1 3.359 0 6.806 2.177 9.538 3.897 4.891.788-2.129.871-2.08 1.527.906.671 3.051 1.511 3.805 11.075 9.925 3.38 2.163 3.664 2.609-11.521-18.081-3.633-4.95-9.838-13.5-13.789-19-14.941-20.801-20.008-27.719-21.104-28.815-.84-.84-1.06 3.844-.857 18.26m35.701-16.444c3.55 1.404 6.81 2.16 7.282 1.688.863-.863-3.781-2.511-10.211-3.623-2.398-.415-1.475.195 2.929 1.935m-94.703-.322c.541 1.621 3.53 3.399 4.345 2.583.818-.817-1.987-3.762-3.583-3.762-.635 0-.978.53-.762 1.179m77.524 1.483c.688.278 1.813.278 2.5 0 .688-.277.125-.504-1.25-.504s-1.937.227-1.25.504m32.25.838c-1.037 1.249-.908 1.5.771 1.5 1.108 0 2.274-.675 2.591-1.5.336-.876.015-1.5-.771-1.5-.74 0-1.906.675-2.591 1.5m-113.752 1.342c.483 1.845.143 2.158-2.342 2.158-1.916 0-2.906.511-2.906 1.5 0 .825-.474 1.5-1.053 1.5-2.112 0-8.124 4.773-6.936 5.507.64.395 1.664.218 2.276-.394.612-.612 2.373-1.113 3.913-1.113 1.54 0 2.8-.401 2.8-.891 0-.489 1.462-1.131 3.25-1.426 5.874-.969 13.142-3.358 13.502-4.439.482-1.447-1.289-2.402-5.079-2.738-1.745-.155-4.257-.628-5.581-1.051-2.121-.679-2.341-.514-1.844 1.387m91.998 1.634c3.71 1.32 7.197 2.68 7.75 3.021.552.342 1.004-.007 1.004-.774 0-.853-2.327-2.042-5.985-3.059-8.826-2.454-10.536-1.953-2.769.812m25.196-.382c-.372.602-1.771.885-3.108.629-1.403-.268-3.306.243-4.498 1.208-2.027 1.642-1.985 1.697 2.299 2.985 4.459 1.34 8.166 2.726 10.898 4.074 1.931.952 8.219 2.454 9.217 2.2.412-.104.75.26.75.81s.787.975 1.75.944c1.352-.042 1.097-.555-1.116-2.25-1.576-1.207-4.276-3.424-6-4.928-1.724-1.504-3.696-2.741-4.384-2.75-.687-.009-1.25-.916-1.25-2.016 0-2.177-3.36-2.844-4.558-.906m-26.146 6.459c1.032 1.131 9.96 4.524 10.495 3.989.956-.955-.974-2.311-4.017-2.822-1.801-.302-4.174-.885-5.274-1.294-1.125-.419-1.652-.363-1.204.127M160 127.5c3.45 1.972 6.176 1.948 3.559-.032-1.068-.807-2.868-1.452-4-1.433-1.882.033-1.844.159.441 1.465m-44.358 7.58c-1.131 3.773-.432 11.658.871 9.836.568-.794.77-3.833.458-6.916-.464-4.594-.683-5.075-1.329-2.92m-5.901 10.252c-1.16 2.866-.951 5.278.344 3.983.596-.596.93-2.149.741-3.45-.303-2.082-.433-2.146-1.085-.533M103.272 149c0 2.475.195 3.488.434 2.25.238-1.238.238-3.262 0-4.5-.239-1.238-.434-.225-.434 2.25m12.361 4.979c-2.932 4.43-3.479 7.56-1.167 6.672 1.147-.44 1.343.055.899 2.272-.319 1.597-.086 3.131.534 3.515.606.374 1.121 1.666 1.146 2.871.025 1.205.663 3.541 1.419 5.191 1.247 2.724 1.381 1.736 1.455-10.75.044-7.562-.309-13.75-.786-13.75-.477 0-2.052 1.79-3.5 3.979M17 213.896c0 1.662.618 2.104 2.943 2.104 5.13 0 6.057 2.684 6.057 17.534 0 11.79-.202 13.306-2.039 15.277-1.121 1.204-3.146 2.189-4.5 2.189-1.794 0-2.461.542-2.461 2 0 1.939.667 2 21.878 2 23.355 0 26.782-.572 31.079-5.184 3.701-3.972 2.505-13.002-2.23-16.836-1.748-1.416-1.82-1.858-.613-3.791.752-1.204 1.709-2.189 2.127-2.189.417 0 .759-2.172.759-4.826 0-3.894-.498-5.293-2.58-7.25-2.558-2.403-2.787-2.427-26.5-2.778-23.76-.352-23.92-.34-23.92 1.75M30.413 233.5c.001 9.9.151 13.815.333 8.699.182-5.115.181-13.215-.002-18-.183-4.784-.332-.599-.331 9.301m13.036-14.032c-.797 1.907-1.449 5.057-1.449 7 0 3.522.012 3.532 4.525 3.532 4.012 0 4.643-.311 5.566-2.74 3.153-8.291-5.263-15.879-8.642-7.792m166.051-2.152c-6.203 2.448-9.111 8.036-7.787 14.964.561 2.935 5.853 8.72 7.977 8.72.72 0 1.31.357 1.31.793 0 .436 2.588 1.646 5.75 2.689 3.162 1.043 7.069 2.799 8.681 3.904l2.93 2.007-2.866.767c-6.337 1.695-15.22-2.674-19.793-9.734-1.211-1.87-2.652-3.255-3.202-3.079-1.52.486-1.285 15.891.25 16.403.688.229 1.25-.304 1.25-1.186 0-1.24.621-1.454 2.75-.945 1.512.361 3.317 1.104 4.01 1.65.694.546 5.465 1.038 10.604 1.092 8.753.093 9.574-.077 12.99-2.682 3.587-2.736 3.646-2.895 3.646-9.829 0-6.47-.234-7.265-2.861-9.699-2.845-2.636-11.208-6.131-14.773-6.173-1.026-.012-2.969-.87-4.317-1.906-2.092-1.608-2.257-2.117-1.127-3.478 1.461-1.76 4.176-2.053 6.842-.737 6.928 3.421 9.101 4.765 11.802 7.3 1.686 1.583 3.373 2.57 3.75 2.194.376-.376.684-3.309.684-6.518 0-4.366-.356-5.833-1.417-5.833-.779 0-1.605.563-1.836 1.25-.328.976-.949.993-2.833.075-5.664-2.756-17.77-3.841-22.414-2.009M77 219.911c0 1.477.793 2.04 3.211 2.276 3.998.39 4.559 2.109 4.675 14.313.098 10.435-1.132 13.849-5.159 14.316-1.92.223-2.727.889-2.727 2.25 0 1.822.83 1.934 14.3 1.934 9.789 0 14.679-.379 15.5-1.2 1.937-1.937 1.399-2.8-1.743-2.8-4.805 0-6.057-2.927-6.057-14.157 0-12.223.825-14.605 5.2-15.026 2.126-.204 3.3-.851 3.3-1.817 0-1.256-2.484-1.545-15.25-1.776-14.58-.264-15.25-.19-15.25 1.687m36 .089c0 1.305.667 2 1.918 2 4.92 0 5.082.444 5.082 13.907 0 13.459-.509 15.093-4.7 15.093-1.633 0-2.3.58-2.3 2 0 1.933.667 2 19.893 2 17.217 0 19.975-.213 20.5-1.582.911-2.373.731-15.223-.221-15.812-.456-.281-2.368 1.817-4.25 4.663-3.69 5.58-8.663 9.151-11.322 8.131-1.447-.555-1.62-2.344-1.377-14.268l.277-13.632 3.99-.5c2.755-.345 4.094-1.042 4.324-2.25.306-1.608-.973-1.75-15.741-1.75-15.406 0-16.073.083-16.073 2m44 0c0 1.42.667 2 2.3 2 4.16 0 4.7 1.664 4.7 14.5s-.54 14.5-4.7 14.5c-1.641 0-2.3.579-2.3 2.021 0 1.97.508 2.014 20.25 1.75l20.25-.271v-8.25c0-4.537-.43-8.3-.956-8.361-.526-.06-1.726 1.325-2.667 3.08-2.423 4.518-4.766 6.884-8.633 8.719-4.948 2.348-5.657 1.007-6.067-11.473-.442-13.473.454-16.215 5.298-16.215 2.858 0 3.525-.378 3.525-2 0-1.914-.667-2-15.5-2s-15.5.086-15.5 2m-98.748 3.5c.011 2.2.216 2.982.455 1.738.239-1.244.23-3.044-.02-4s-.446.062-.435 2.262m66.148 13c.001 8.25.156 11.492.344 7.204.188-4.287.187-11.037-.002-15-.19-3.962-.343-.454-.342 7.796m43.31-.875c.115 7.495.452 13.871.75 14.168.297.297.54-5.835.54-13.626 0-7.792-.338-14.167-.75-14.168-.412 0-.656 6.132-.54 13.626m38.29-2.707c0 1.885 7.986 6.371 18 10.11 1.925.719 4.073 1.746 4.774 2.282.701.536 1.512.737 1.803.447.835-.835-4.65-4.757-6.653-4.757-.993 0-2.084-.45-2.424-1-.34-.55-1.405-1-2.368-1-.962 0-4.311-1.542-7.441-3.427s-5.691-3.08-5.691-2.655m-163.333 1.749c-1.196 1.195-.702 9.313.782 12.865 1.632 3.906 4.531 4.571 8.328 1.911 1.858-1.301 2.223-2.498 2.223-7.3 0-3.159-.54-6.283-1.2-6.943-1.265-1.265-8.995-1.672-10.133-.533M59 242c0 2.2.45 4 1 4s1-1.8 1-4-.45-4-1-4-1 1.8-1 4" fill="#1976D2" fill-rule="evenodd"/><path fill-opacity=".515" d="M113.393 22.221c-5.008 12.201-9.528 22.324-10.044 22.496-.516.172-8.057-4.217-16.758-9.754-8.702-5.536-16.067-9.82-16.368-9.52-.3.301-.052 2.237.552 4.302 1.22 4.17 2.301 8.877 4.768 20.755.914 4.4 2.067 9.31 2.564 10.912.496 1.602.773 3.041.616 3.199-.53.529-18.081 2.304-34.875 3.526-11.098.808-16.497 1.571-16.189 2.287.255.592 2.941 3.101 5.969 5.576 3.029 2.475 6.27 5.175 7.204 6 6.12 5.408 17.178 14.867 19.644 16.805l2.934 2.306-2.955 2.714c-1.625 1.493-5.192 4.506-7.926 6.695s-5.884 4.73-7 5.646c-8.926 7.328-10.645 8.849-10.124 8.959.327.069.932.212 1.345.318.413.106 5.576.553 11.475.993 5.898.44 14.448 1.336 19 1.992 7.932 1.142 8.261 1.293 7.941 3.632-.363 2.654-9.523 41.279-11.119 46.889-.54 1.897-.811 3.621-.602 3.83.435.434 15.741-8.657 31.742-18.854 5.977-3.809 11.194-6.925 11.594-6.925.399 0 3.371 6.863 6.604 15.25s6.204 15.613 6.602 16.056c.398.443 1.317-.682 2.041-2.5s2.814-6.601 4.644-10.629 3.328-7.502 3.328-7.72c0-1.105 5.133-11.421 5.926-11.912.506-.312 5.117 2.068 10.247 5.289 22.746 14.284 36.074 22.252 36.502 21.824.255-.255-.053-2.42-.685-4.811-2.381-9.012-3.072-11.784-7.133-28.609-2.291-9.494-3.889-17.54-3.549-17.879.976-.976 15.269-2.246 25.942-2.305 5.363-.03 9.75-.464 9.75-.965 0-.501-1.463-2.139-3.25-3.639-2.89-2.427-11.352-9.836-20.182-17.673l-3.068-2.723 4-3.802c2.2-2.092 10.863-9.604 19.25-16.695 8.387-7.09 15.25-13.193 15.25-13.561 0-.368-7.312-1.209-16.25-1.869-21.88-1.614-35.75-3.197-35.75-4.08 0-.4.946-4.287 2.103-8.637 1.156-4.351 2.466-9.485 2.91-11.41.444-1.925 1.571-6.34 2.503-9.811.932-3.472 1.486-6.521 1.23-6.776-.255-.255-3.227 1.122-6.605 3.062-8.842 5.076-17.08 9.878-21.358 12.449-2.044 1.229-4.17 1.955-4.723 1.613-1.247-.771-2.474-3.457-9.536-20.876C126.052 5.23 123.736-.004 123.063.019c-.31.01-4.661 10.001-9.67 22.202m7.863-8.417c-.652 1.483-1.882 4.682-2.734 7.11-.852 2.427-2.057 5.026-2.678 5.774-.621.748-.839 1.65-.484 2.005.354.355-.124 1.494-1.063 2.532-1.451 1.602-1.511 2.202-.404 3.976 1.128 1.806 1.093 2.008-.262 1.488-.862-.331-1.85-.144-2.195.415-.76 1.229 1.447 6.896 2.685 6.896.484 0 .879.528.879 1.174 0 .646-1.113.129-2.474-1.149-4.217-3.962-4.286-.037-.12 6.821C114.383 54.1 116 57.109 116 57.534c0 .89-3.524-2.974-5.73-6.284-.825-1.237-1.912-2.25-2.416-2.25-2.465 0-1.544 3.417 2.681 9.948 2.56 3.958 4.451 7.4 4.201 7.649-.249.25-2.372-2.033-4.716-5.072-3.909-5.066-7.02-7.055-7.02-4.489 0 .57 2.735 5.334 6.079 10.588 3.343 5.253 5.853 9.777 5.578 10.052-.275.276-3.123-2.884-6.329-7.021-3.205-4.137-6.117-7.552-6.471-7.588-2.55-.265-.699 4.309 5.562 13.744C114.169 86.984 116.478 91 115.577 91c-.199 0-4.547-5.175-9.663-11.5C97.624 69.251 94 66.041 94 68.946c0 .521 2.25 4.459 5 8.75 2.75 4.292 5 8.185 5 8.65 0 .465-3.388-3.248-7.528-8.25-4.141-5.003-8.191-9.096-9-9.096-2.107 0-1.929.542 2.593 7.892L94.13 83.5l-3.815-4.107a427.252 427.252 0 01-6.573-7.25C79.187 66.952 77.157 68.697 81 74.5c3.279 4.952 2.265 5.001-2.119.102-5.617-6.275-9.379-5.974-5.309.425.865 1.36.03.786-1.856-1.277-3.937-4.306-7.271-5.119-6.159-1.5l.691 2.25-2.516-2.323c-2.069-1.91-2.736-2.088-3.748-1-.903.97-3.867 1.239-11.108 1.007-6.007-.193-9.876.068-9.876.664 0 .54 10.687 4.45 23.75 8.688a18418.715 18418.715 0 0140.168 13.085c9.03 2.958 17.108 5.379 17.95 5.379 3.628 0-1.269 2.162-15.368 6.786-8.25 2.706-16.257 5.225-17.793 5.597-2.677.649-5.031 4.173-3.977 5.954.273.461 1.457.552 2.633.204 9.23-2.737 12.234-3.304 13.087-2.47.592.579.197.929-1.05.929-1.1 0-2.428.4-2.95.889-.523.49-3.762 1.9-7.2 3.134-3.847 1.382-6.25 2.815-6.25 3.728 0 1.101.706 1.322 2.75.859 11.295-2.56 12.035-1.37 1.5 2.413C81.853 129.602 80 130.782 80 132c0 1.466.575 1.618 3.75.991 2.063-.407 4.537-1.07 5.5-1.473 1.054-.441 1.75-.292 1.75.375 0 .609-.606 1.107-1.346 1.107-1.214 0-5.681 1.815-9.654 3.922-2.721 1.443-1.745 3.599 1.5 3.315l3-.263-3.75 2.037c-3.897 2.117-5.041 4.978-2 5.004 1.295.011 1.111.338-.711 1.26-2.271 1.149-3.042 2.885-4.541 10.225-.224 1.1-1.13 4.636-2.012 7.857-2.74 10.005-2.844 10.11 16.901-17.254 24.033-33.307 28.206-39.019 31.31-42.855l3.44-4.252-.053-45.149c-.029-24.833-.186-45.282-.348-45.445-.163-.162-.828.919-1.48 2.402m-44.83 20.744c5.545 8.524 18.815 26.994 19.593 27.271C97.392 62.308 100 55.22 100 51c0-3.818-2.061-6.698-3.956-5.527-.574.355-1.044.171-1.044-.408 0-.99-15.606-11.593-18.953-12.877-1.231-.472-1.154.004.379 2.36m90.563.422c-1.369.985-4.064 2.644-5.989 3.686-4.23 2.288-9.314 5.561-10 6.436-.275.351-1.512.954-2.75 1.341-1.739.542-2.25 1.454-2.25 4.012C146 54.077 148.534 61 149.864 61c.46 0 1.917-1.429 3.236-3.176 1.32-1.747 4.662-6.134 7.427-9.75 2.764-3.616 6.274-8.221 7.8-10.234 3.115-4.111 2.428-5.584-1.338-2.87m-34.806 1.247c-.651.65-1.183 1.575-1.183 2.054 0 .48.729.143 1.619-.747.891-.891 1.423-1.815 1.183-2.055-.239-.24-.968.097-1.619.748m.407 7.533l-1.78 3.75 2.595-2.424c1.427-1.334 2.595-3.021 2.595-3.75 0-2.488-1.627-1.332-3.41 2.424m3.604 4.272c-1.207 1.295-2.194 2.89-2.194 3.544 0 .654-.675 1.749-1.5 2.434s-1.5 1.924-1.5 2.753c0 .83 1.838-.8 4.084-3.621 4.223-5.304 5.115-9.408 1.11-5.11m-.534 11.274c-6.833 10.963-6.289 11.211 2.162.985 3.238-3.919 4.086-5.623 3.405-6.84-.728-1.301-1.829-.143-5.567 5.855M80 55c0 .55.702 1 1.559 1s1.281-.45.941-1c-.34-.55-1.041-1-1.559-1S80 54.45 80 55m4 2c0 .55.477 1 1.059 1s.781-.45.441-1-.816-1-1.059-1-.441.45-.441 1m78 0c0 .55.9 1 2 1s2-.45 2-1-.9-1-2-1-2 .45-2 1m-80.443 2.907c-.93 1.506 2.209 3.253 5.133 2.856 2.487-.338 2.58-.47.81-1.146-1.1-.419-2.767-1.171-3.704-1.67-.951-.506-1.94-.524-2.239-.04m55.864 7.759c-9.093 14.096-8.22 14.059 3.477-.148 4.155-5.046 4.887-6.915 3.133-7.999-.532-.329-3.507 3.337-6.61 8.147m21.741-5.182c-1.287.709-1.959 1.523-1.495 1.81 1.533.948 6.333-.5 6.333-1.911 0-1.669-1.689-1.634-4.838.101M139.325 78.75c-12.312 16.672-14.706 20.203-14.102 20.807.491.49 10.473-2.478 28.777-8.557 3.025-1.005 12.925-4.163 22-7.018 26.227-8.25 30.41-9.713 30.756-10.751.402-1.205-23.112-2.273-23.589-1.071-.563 1.419-2.167.93-2.167-.66 0-2.5-2.548-1.689-5.495 1.75-2.54 2.964-2.689 2.675-.898-1.75.416-1.027-.006-1.5-1.336-1.5-1.137 0-3.567 2.058-5.857 4.96-4.711 5.969-6.416 6.587-2.927 1.06 2.547-4.034 3.24-7.02 1.629-7.02-.897 0-5.76 5.121-9.88 10.403-3.904 5.005-3.427 2.202.717-4.208 2.62-4.055 3.583-6.364 2.843-6.821-1.246-.77-6.413 4.706-16.548 17.54-2.69 3.405.128-2.418 4.439-9.174 2.372-3.718 4.313-7.206 4.313-7.75 0-.545-1.066-.99-2.368-.99-1.851 0-4.1 2.345-10.307 10.75M57.5 90c-.34.55-.141 1 .441 1S59 90.55 59 90s-.198-1-.441-1-.719.45-1.059 1M187 90c0 .55.702 1 1.559 1s1.281-.45.941-1c-.34-.55-1.041-1-1.559-1s-.941.45-.941 1M66.5 92c-.34.55-1.806 1-3.259 1-1.979 0-2.355.286-1.499 1.142.855.855 2.033.718 4.7-.547C68.399 92.666 70 91.702 70 91.453c0-.887-2.893-.435-3.5.547m109.5-.513c0 .267 1.655 1.178 3.677 2.023 2.506 1.047 4.003 1.21 4.7.513.697-.697.182-1.023-1.618-1.023-1.453 0-2.919-.45-3.259-1-.62-1.003-3.5-1.426-3.5-.513M72.157 95.995c-1.838.435-3.833 1.281-4.433 1.881-1.671 1.671.115 2.706 2.308 1.336C71.099 98.545 72.654 98 73.486 98c.833 0 1.514-.419 1.514-.93 0-.512 1.013-1.126 2.25-1.364 1.859-.358 1.902-.44.25-.467-1.1-.019-3.504.321-5.343.756M169 95.588c2.196.866 8.379 3.608 9.25 4.104.412.234.75-.245.75-1.066 0-.82-.787-1.723-1.75-2.005-2.701-.794-9.944-1.7-8.25-1.033m-85 3.33c-.825.471-3.525 1.184-6 1.585-5.668.917-6.37 1.346-4.967 3.037.941 1.133 2.062.95 6.673-1.089 3.049-1.348 6.135-2.451 6.859-2.451.725 0 1.595-.45 1.935-1 .751-1.214-2.417-1.272-4.5-.082m74.5.082c.34.55 1.145 1 1.79 1 .644 0 3.499.965 6.344 2.144 2.87 1.189 5.948 1.847 6.913 1.476 2.47-.947 1.648-1.416-6.392-3.644-8.067-2.236-9.536-2.401-8.655-.976m-71.341 5.008c-10.796 2.718-11.05 2.847-8.832 4.48 1.962 1.444 2.571 1.278 15.673-4.281 1.375-.583 3.175-1.283 4-1.555 3.999-1.317-4.389-.268-10.841 1.356M148 102.669c.825.28 2.85 1.108 4.5 1.839 11.296 5.003 17.202 6.139 16.217 3.119-.403-1.235-15.709-5.486-19.717-5.475-1.375.003-1.825.236-1 .517m-25 19.26c0 15.874.254 19.182 1.571 20.5.865.864 1.933 1.571 2.375 1.571 1.22 0 2.046-5.399 2.124-13.875.085-9.189 1.751-6.962 1.86 2.485.181 15.76 3.192 21.087 4.601 8.14.875-8.047 1.159-7.643 2.233 3.169.444 4.476 1.232 7.583 1.986 7.833.831.276 1.255-.702 1.265-2.919.009-1.833.452-4.008.985-4.833.711-1.101.973-.385.985 2.685.031 8.521 3.926 12.576 5.029 5.236.404-2.69.671-3.029 1.25-1.589.405 1.007.736 3.37.736 5.25 0 3.779 2.156 4.696 3.92 1.668.845-1.451 1.024-1.198 1.05 1.481.024 2.6.518 3.353 2.53 3.858 1.375.345 2.5 1.043 2.5 1.551 0 .507.787 1.219 1.75 1.581.963.361 4.15 2.185 7.083 4.052 2.933 1.867 5.566 3.161 5.852 2.876.285-.286-3.508-6.061-8.429-12.834L147.499 134c-17.398-23.942-22.782-31-23.649-31-.468 0-.85 8.518-.85 18.929m-58.685-16.026c-.302 1.153-1.219 2.097-2.038 2.097-2.796 0-17.65 12.587-16.689 14.142.277.449 1.271.414 2.208-.078.937-.492 5.079-1.888 9.204-3.102 6.666-1.962 13.793-4.171 17.909-5.549 1.729-.579-2.182-4.962-6.932-7.768-3.072-1.814-3.121-1.811-3.662.258m68.498-1.22c.721.289 1.584.253 1.916-.079.332-.332-.258-.568-1.312-.525-1.165.048-1.402.285-.604.604M136.5 106c.34.55 1.152 1 1.804 1 .653 0 6.046 1.87 11.985 4.156 8.171 3.144 11.08 3.875 11.955 3 1.828-1.828.111-2.691-12.025-6.041-11.967-3.304-14.716-3.728-13.719-2.115m35.937 4.424c-3.628 3.252-4.539 4.571-3.437 4.979 11.736 4.344 27.616 9.558 28.356 9.312.523-.175-.189-1.419-1.582-2.766-6.459-6.246-9.688-8.949-10.688-8.949-.597 0-1.086-.675-1.086-1.5s-.848-1.5-1.883-1.5c-1.043 0-2.117-.893-2.407-2-.75-2.867-1.733-2.54-7.273 2.424m-70.624 4.259c.721.289 1.584.253 1.916-.079.332-.332-.258-.568-1.312-.525-1.165.048-1.402.285-.604.604m41 0c.721.289 1.584.253 1.916-.079.332-.332-.258-.568-1.312-.525-1.165.048-1.402.285-.604.604m3.187.969c0 .705 8.184 4.19 16.75 7.133 1.401.481 1.738-2.365.38-3.205-.837-.517-10.213-3.224-14.88-4.296-1.238-.285-2.25-.119-2.25.368m-70.829 5.666c-2.374 2.527-2.905 5.088-.921 4.441 1.335-.434 4.215-5.627 3.511-6.331-.231-.231-1.397.62-2.59 1.89m-6.043.582c-.754.478-1.167 1.482-.917 2.232.316.949.819.681 1.657-.885 1.329-2.484 1.259-2.613-.74-1.347m26.685 1.783c.721.289 1.584.253 1.916-.079.332-.332-.258-.568-1.312-.525-1.165.048-1.402.285-.604.604m19.217 10.65c-.023 9.043.265 11.731 1.22 11.398.911-.318 1.176-3.088.979-10.21-.407-14.669-2.162-15.618-2.199-1.188m33.783-10.65c.721.289 1.584.253 1.916-.079.332-.332-.258-.568-1.312-.525-1.165.048-1.402.285-.604.604M172 123.8c0 1.052 2.172 3.2 3.235 3.2.46 0 .354-.9-.235-2-1.057-1.975-3-2.752-3-1.2m-19.5.928c1.577 1.515 12.505 5.6 13.178 4.927 1.075-1.075-1.655-3.42-4.71-4.046-8.164-1.675-9.432-1.807-8.468-.881m2.5 7.165c0 .609.59 1.107 1.312 1.107.722 0 3.175.9 5.452 2 4.953 2.393 5.236 2.421 5.236.519 0-.814-1.238-1.742-2.75-2.06-5.294-1.115-5.763-1.237-7.5-1.953-1.047-.43-1.75-.275-1.75.387m-45.22 5.607c-.387 1.65-.997 5.137-1.356 7.75-.528 3.853-.367 4.75.855 4.75 2.049 0 2.319-1.416 1.72-9-.422-5.326-.642-5.958-1.219-3.5m-6.68 9.309c-.064 4.641.265 7.083.9 6.691 1.164-.719 1.164-7.865 0-11.5-.568-1.774-.83-.377-.9 4.809m61.64-5.068c1.782.887 3.569 1.283 3.971.881 1.059-1.059-1.796-2.599-4.711-2.543-2.378.047-2.342.128.74 1.662m-66.993 9.672c-.715 4.665-.423 6.596.812 5.361.308-.307.42-2.745.25-5.417L98.5 146.5l-.753 4.913m69.003-3.751c.688.278 1.813.278 2.5 0 .688-.277.125-.504-1.25-.504s-1.937.227-1.25.504m-51.572 4.021c-4.968 2.994-4.966 2.471-.049 16.317 1.66 4.675 3.225 9.138 3.477 9.917 1.194 3.686 2.19-1.63 2.747-14.667.469-10.958.325-14.241-.622-14.211-.677.021-3.176 1.211-5.553 2.644M127 155.071c0 1.599 2.988 4.283 3.798 3.411.386-.416.14-.957-.548-1.202-.687-.246-1.25-1.084-1.25-1.863 0-.78-.45-1.417-1-1.417s-1 .482-1 1.071M17 214c0 .55 1.025 1 2.277 1 1.253 0 3.278.701 4.5 1.557 2.132 1.493 2.223 2.181 2.223 16.8C26 250.098 25.709 251 20.3 251c-2.267 0-3.3.47-3.3 1.5 0 1.285 2.967 1.498 20.75 1.489 24.244-.013 27.385-.396 30.743-3.755 2.04-2.04 2.507-3.486 2.507-7.767 0-4.712-.348-5.565-3.343-8.195l-3.343-2.935 2.343-2.724c3.26-3.791 3.209-9.838-.112-13.158L64.091 213H40.545c-15.03 0-23.545.362-23.545 1m12.639 1.694c-.351.352-.639 8.439-.639 17.973 0 14.74.224 17.333 1.5 17.333s1.5-2.605 1.5-17.441c0-15.851-.511-19.715-2.361-17.865m14.412 1.255C42.439 218.561 42 220.283 42 225v6h3.961c4.899 0 8.039-2.96 8.039-7.578 0-6.154-6.22-10.202-9.949-6.473m12.449 6.622c0 6.629.669 7.85 2.465 4.495 1.586-2.964 1.233-7.577-.715-9.34-1.649-1.492-1.75-1.214-1.75 4.845m154.765-5.893c-1.823.252-4.552 1.763-6.25 3.461-2.452 2.451-3.015 3.848-3.015 7.473 0 6.526 2.272 9.177 11.625 13.559 4.493 2.106 8.821 3.829 9.617 3.829.797 0 2.299.941 3.34 2.09 1.856 2.052 1.855 2.117-.036 3.5-2.346 1.715-3.676 1.751-8.739.234-4.368-1.309-12.354-7.82-13.318-10.86-1.352-4.257-2.487-1.583-2.457 5.786.026 6.5.237 7.479 1.308 6.071 1.191-1.566 1.668-1.55 7.123.25 6.822 2.251 16.219 2.506 20.859.568 5.525-2.308 6.678-4.149 6.678-10.655 0-8.239-2.019-10.303-14.019-14.331-8.657-2.905-9.508-3.419-9.797-5.917-.297-2.562-.074-2.735 3.5-2.714 4.867.028 11.099 2.855 15.261 6.925 1.792 1.751 3.525 2.916 3.852 2.589 1.152-1.152.739-10.536-.464-10.536-.641 0-1.316.412-1.5.916-.186.513-2.055.321-4.245-.437-4.425-1.532-14.476-2.469-19.323-1.801m-133.598.989c-1.429 1.429-.538 2.333 2.298 2.333 1.908 0 3.334.69 4 1.934 1.172 2.191 1.399 24.946.266 26.726-.405.638-2.086 1.313-3.734 1.5-1.648.187-2.885.79-2.747 1.34.152.607 5.75 1 14.25 1s14.098-.393 14.25-1c.138-.55-.875-1.156-2.25-1.346-4.685-.648-5-1.599-5-15.076 0-13.443.51-15.078 4.7-15.078 1.378 0 2.3-.601 2.3-1.5 0-1.261-2.204-1.5-13.833-1.5-7.609 0-14.134.3-14.5.667m36.025-.026c-1.372 1.372-.645 2.359 1.737 2.359 4.824 0 5.571 2.072 5.571 15.449 0 12.966-.348 14.034-4.79 14.705-1.259.19-2.384.796-2.5 1.346-.133.633 7.041 1.1 19.54 1.271l19.75.271-.019-8.271-.019-8.271-2.896 4.611c-3.604 5.737-7.519 8.889-11.04 8.889-3.888 0-5.029-3.368-5.011-14.797.018-12.039 1.089-14.583 6.32-15.017 2.374-.197 3.642-.757 3.395-1.5-.435-1.308-28.789-2.294-30.038-1.045m44 0c-1.338 1.339-.669 2.359 1.558 2.374 4.776.033 5.229 1.157 5.582 13.86.381 13.747-.349 16.125-4.951 16.125-1.994 0-2.904.432-2.631 1.25.314.943 5.189 1.25 19.833 1.25H196.5l.294-7.25c.31-7.657-.729-9.235-2.796-4.245-1.973 4.763-7.618 9.164-11.289 8.801-2.599-.257-3.239-.866-4.001-3.806-1.305-5.032-.454-22.396 1.195-24.383.763-.919 2.835-1.617 4.803-1.617 2.323 0 3.324-.411 3.045-1.25-.301-.906-4.401-1.326-14.891-1.526-7.961-.151-14.787.036-15.168.417m-34.053 3.053c-.351.352-.639 7.089-.639 14.973 0 12.074.236 14.333 1.5 14.333s1.5-2.271 1.5-14.441c0-13.146-.559-16.667-2.361-14.865m44.028-.027c-1.106 1.106-.786 29.333.333 29.333.622 0 1-5.667 1-15 0-8.25-.15-15-.333-15-.184 0-.634.3-1 .667M87 236.583c0 11.222.288 14.488 1.25 14.168.904-.3 1.327-4.341 1.527-14.583.239-12.161.062-14.168-1.25-14.168-1.3 0-1.527 2.171-1.527 14.583m117.059-7.234c-.087 4.218 4.384 7.774 15.865 12.619 5.482 2.313 10.155 4.729 10.385 5.369.229.64.8.804 1.269.365 2.249-2.108-4.16-6.553-14.895-10.33-4.739-1.667-9.03-5.026-11.374-8.902-1.107-1.83-1.196-1.767-1.25.879m-161.392 4.318c-.367.366-.667 3.911-.667 7.877 0 8.372.985 9.739 6.68 9.271 3.313-.273 4.069-.826 5.699-4.163 1.617-3.31 1.714-4.399.696-7.795-.805-2.688-1.984-4.252-3.694-4.902-2.899-1.102-7.74-1.262-8.714-.288m14.855 3.083c1.482 3.527 1.674 6.249.648 9.193-1.489 4.269.282 4.731 2.249.587 1.645-3.468 1.367-7.682-.679-10.28-1.475-1.872-3.065-1.514-2.218.5" fill="#1976D2" fill-rule="evenodd"/><path fill-opacity=".469" d="M121.897 3.621c-.648 1.583-1.743 4.229-2.433 5.879a994.888 994.888 0 00-3.481 8.5 624.07 624.07 0 01-3.937 9.5c-.942 2.2-3.016 7.15-4.609 11-1.592 3.85-3.242 7.15-3.666 7.333-.424.184-.771 1.366-.771 2.628s-.675 2.854-1.5 3.539-1.5 1.945-1.5 2.801c0 2.841-2.382 8.197-3.701 8.324-1.667.16-2.406.374-4.549 1.318-.963.424-2.318.553-3.013.286-.694-.266-3.506-.092-6.25.388-5.255.919-22.079 2.44-41.75 3.777-6.469.439-11.994 1.03-12.277 1.313-.283.283.969 1.646 2.783 3.029 1.814 1.384 8.849 7.304 15.633 13.157 6.784 5.853 13.105 11.196 14.046 11.874.94.678 1.99 1.986 2.333 2.907.344.921 2.15 2.399 4.014 3.283 1.864.885 5.146 3.408 7.294 5.607 4.316 4.421 5.216 8.527 2.864 13.075-.75 1.452-1.311 3.927-1.247 5.5.103 2.517-.71 6.491-4.163 20.361-.479 1.925-1.62 6.65-2.535 10.5a1904.6 1904.6 0 01-2.645 11c-1.636 6.667-2.098 10.5-1.266 10.5.434 0 3.521-1.73 6.859-3.844C90.725 165.569 105.188 157 106.45 157c.788 0 1.733-.487 2.101-1.083 1.294-2.093 11.379-7.917 13.71-7.917 1.296 0 3.23.661 4.298 1.468 1.067.808 2.743 1.483 3.722 1.5.98.018 2.025.666 2.323 1.442.297.775 1.687 1.697 3.088 2.049 1.4.351 7.455 3.767 13.454 7.59 6 3.823 11.092 6.951 11.316 6.951.225 0 5.035 2.903 10.689 6.451 5.654 3.548 10.424 6.308 10.599 6.132.176-.175-.176-2.291-.781-4.701-2.866-11.409-3.854-15.449-6.451-26.382-.915-3.85-2.136-8.8-2.714-11-.577-2.2-1.039-5.687-1.027-7.75.013-2.062-.382-3.75-.877-3.75s-.9-1.465-.9-3.257c0-1.791-.446-4.811-.991-6.711-.906-3.16-.721-3.734 2.159-6.705 1.732-1.787 4.653-3.963 6.491-4.835 1.837-.872 3.341-2.018 3.341-2.546 0-.527 1.199-1.969 2.665-3.203 1.466-1.233 4.77-4.043 7.342-6.243 2.573-2.2 8.911-7.599 14.085-11.998 5.174-4.398 10.492-8.977 11.817-10.174l2.409-2.178-3.409-.529c-1.875-.291-7.459-.773-12.409-1.071-22.599-1.361-34.415-2.379-35.517-3.06-.657-.407-3.204-.699-5.659-.65-2.455.049-5.22-.317-6.144-.815-.924-.497-2.846-1.147-4.271-1.444-2.074-.432-2.923-1.565-4.25-5.675-.913-2.825-1.659-5.914-1.659-6.866 0-.951-.9-2.545-2-3.54-1.1-.995-2-2.195-2-2.666 0-.471-.846-2.763-1.879-5.095-1.034-2.331-2.881-6.714-4.104-9.739-1.224-3.025-2.807-6.85-3.518-8.5-.711-1.65-2.741-6.6-4.511-11-1.769-4.4-3.374-8.171-3.565-8.379-.192-.209-.878.916-1.526 2.5m-.594 8.629a175.75 175.75 0 00-2.274 5.25c-2.194 5.31-4.228 9.955-5.14 11.736-.489.955-.889 2.616-.889 3.691 0 1.075-.45 2.233-1 2.573-.55.34-1 1.507-1 2.594s-.727 3.086-1.615 4.441c-1.487 2.269-1.487 2.661 0 4.93 2.053 3.134 2.074 4.137.044 2.106-.865-.864-1.99-1.571-2.5-1.571-1.689 0-.965 5.141 1.139 8.096 1.138 1.597 1.603 2.904 1.035 2.904-.568 0-1.514-.9-2.103-2-.589-1.1-1.681-2-2.428-2-2.877 0-2.26 3.053 2.001 9.899 2.435 3.913 4.427 7.378 4.427 7.7 0 .321-2.099-1.993-4.665-5.142-4.224-5.186-4.785-5.562-5.942-3.98-1.349 1.846-.589 3.442 6.803 14.273 4.607 6.752 1.834 4.885-4.12-2.774-3.95-5.08-6.056-6.976-7.75-6.976-2.965 0-2.933.292.674 6.154 1.65 2.682 3 5.118 3 5.413 0 .295-2.266-2.187-5.036-5.515-3.028-3.638-5.82-6.052-7-6.052-2.464 0-2.453.649.086 5 1.989 3.409 1.937 3.387-2.018-.851-2.538-2.721-4.618-4.138-5.546-3.782-1.688.648-1.989 3.204-.486 4.133.55.34 1 1.076 1 1.636 0 .559-1.165-.367-2.589-2.059-2.928-3.48-4.843-3.881-6.331-1.327-.646 1.109-1.03 1.264-1.05.424-.024-1.054-2.232-1.205-10.78-.739-14.654.8-22.25 1.678-22.25 2.573 0 .862 3.183 2.155 11 4.47 3.025.896 6.281 2.055 7.236 2.575.955.521 2.424.947 3.264.947.84 0 2.309.43 3.264.955.955.525 9.161 3.269 18.236 6.098 9.075 2.829 21.094 6.674 26.71 8.545 5.615 1.871 10.929 3.402 11.809 3.402 3.432 0 .122 1.94-6.778 3.972-3.983 1.173-8.022 2.56-8.977 3.081-.955.521-2.616.947-3.691.947-1.075 0-2.233.45-2.573 1-.34.55-1.454 1-2.476 1s-3.86.858-6.307 1.907c-3.363 1.442-4.575 2.568-4.966 4.617-.507 2.652-.43 2.699 3.615 2.203 2.274-.278 5.034-.847 6.134-1.264 1.313-.497 1.657-.42 1 .225-.55.54-3.25 1.786-6 2.769-8.052 2.878-10.288 7.1-3.25 6.137l4.25-.581-4.17 1.671c-4.888 1.959-7.028 5.341-4.477 7.077 1.512 1.029 1.503 1.126-.103 1.18-1.683.057-2.233 1.578-1.92 5.309.08.963-.351 1.75-.958 1.75-.64 0-.904 1.054-.627 2.5.263 1.375.175 2.5-.195 2.5-.369 0-1.249 2.363-1.954 5.25-1.315 5.384-2.041 8.07-4.198 15.53-1.598 5.524-.037 7.614 2.629 3.521 2.875-4.414 35.196-49.047 38.236-52.801.446-.55 3.044-4.142 5.774-7.982l4.963-6.983.5 18.815c.456 17.146.672 18.941 2.441 20.233 3.944 2.879 4.552 1.928 4.686-7.333l.127-8.75 1.132 10.175c.622 5.597 1.446 10.49 1.83 10.874 1.463 1.463 3.665-.569 4.056-3.742.331-2.686.438-2.438.568 1.321.185 5.341 2.216 7.901 4.66 5.872 1.252-1.039 1.5-.9 1.5.842 0 2.694 3.869 4.972 5.112 3.011.684-1.08.86-1.031.873.242.016 1.663 3.991 5.896 4.047 4.31.017-.498.58-.23 1.25.595 1.228 1.513 12.229 9 13.222 9 .295 0 2.305 1.117 4.468 2.482 2.162 1.365 4.16 2.113 4.439 1.662.423-.684-8.414-13.926-11.878-17.799-.568-.635-3.394-4.46-6.279-8.5-2.886-4.04-11.286-15.669-18.668-25.844-7.382-10.174-13.233-18.687-13.002-18.918.23-.231 1.543.106 2.918.749 1.374.642 3.623 1.618 4.998 2.168s3.512 1.414 4.75 1.92 5.625 2.109 9.75 3.562c4.125 1.453 8.281 3.064 9.236 3.58 2.579 1.393 4.472 1.141 5.174-.689.829-2.159-.85-4.035-4.192-4.682-1.495-.289-4.293-.977-6.218-1.527-8.853-2.531-23.67-6.141-25.25-6.152-.963-.007-1.75-.462-1.75-1.012s.693-1 1.54-1c.847 0 6.135-1.531 11.75-3.402 5.616-1.871 17.635-5.746 26.71-8.613a4660.973 4660.973 0 0026.946-8.598c5.746-1.863 10.921-3.397 11.5-3.409.58-.012 2.123-.845 3.43-1.849l2.375-1.827-6.875-.735c-3.782-.405-11.554-.913-17.272-1.131-5.718-.217-10.63-.629-10.917-.915-1.208-1.208-4.261-.375-5.419 1.479-1.579 2.528-3.182 2.643-1.838.131.55-1.027.715-2.152.368-2.5-.884-.884-4.293-.79-4.321.119-.013.412-1.588 2.487-3.5 4.61-3.695 4.103-4.764 3.842-1.477-.36 1.076-1.375 1.966-3.062 1.978-3.75.05-2.802-3.763-.98-8.327 3.98l-4.849 5.27 2.699-4.85c2.911-5.228 2.459-7.069-1.591-6.485-2.121.306-10.817 11.259-21.702 27.335l-2.708 4-.26-44.25c-.144-24.338-.63-44.25-1.081-44.25-.452 0-1.287 1.012-1.856 2.25m8.141 18.194c-.943 1.44-1.465 2.868-1.159 3.174.305.306 1.327-.623 2.271-2.062.943-1.44 1.465-2.868 1.159-3.174-.305-.306-1.327.623-2.271 2.062m1.069 6.536c-3.594 5.693-3.067 7.199.921 2.63 1.867-2.14 3.161-4.503 2.874-5.25-.754-1.964-1.015-1.784-3.795 2.62m.256 8.238c-2.017 3.419-3.437 6.447-3.156 6.729 1.236 1.235 9.891-10.322 8.914-11.903-1.173-1.898-2.054-1.106-5.758 5.174m1.437 7.532c-7.526 11.686-5.303 11.659 4.138-.049 3.502-4.343 4.281-7.701 1.787-7.701-.513 0-3.179 3.487-5.925 7.75m1.495 8.5c-8.964 14.219-7.615 14.631 3.405 1.04 5.045-6.223 5.783-7.63 4.883-9.31-.583-1.089-1.232-1.98-1.443-1.98-.211 0-3.291 4.612-6.845 10.25m2.926 6.5c-3.472 5.362-6.87 10.801-7.551 12.086-2.777 5.238.2 2.779 7.837-6.477C142.739 66.299 145 62.782 145 60.78c0-1.529-.463-2.78-1.03-2.78-.566 0-3.87 4.388-7.343 9.75M52.98 85.524c-.696.838-1.056 1.734-.8 1.99.633.633 5.802-1.825 5.812-2.764.014-1.358-3.721-.781-5.012.774M188 84.385c0 1.007 5.18 3.622 6.077 3.068 1.626-1.006-.996-3.453-3.699-3.453-1.308 0-2.378.173-2.378.385M58.75 88.299c-1.513.598-2.75 1.402-2.75 1.787 0 1.559 2.713 1.515 6.324-.103 2.911-1.304 3.429-1.864 2.168-2.348-1.976-.758-2.211-.731-5.742.664M181 87.848c0 1.067 7.677 4.142 8.438 3.381 1.082-1.082.541-1.917-1.985-3.068-2.982-1.359-6.453-1.527-6.453-.313m-109.419 2.02c-.295.478-2.796 1.168-5.559 1.535C62.58 91.859 61 92.53 61 93.534c0 1.687 5.502 2.081 6.5.466.34-.55 1.491-1 2.559-1S72 92.55 72 92s.702-1 1.559-1 1.281-.45.941-1c-.761-1.231-2.199-1.296-2.919-.132M171.5 90c-.34.55.084 1 .941 1s1.559.352 1.559.782c0 1.175 8.757 3.525 10.558 2.834 2.705-1.038.56-2.531-4.622-3.219-2.739-.363-5.222-1.051-5.517-1.529-.72-1.164-2.158-1.099-2.919.132M78 93.678c-1.375.223-3.4.818-4.5 1.322-1.1.504-3.12 1.048-4.49 1.208-2.949.346-4.178 3.81-1.333 3.759 2.341-.042 10.945-3.074 14.823-5.224 2.932-1.625 2.943-1.661.5-1.567a49.794 49.794 0 00-5 .502m84.5.086c1.136 1.098 14.452 6.236 16.164 6.236 1.299 0 2.484-2.519 1.6-3.402-.328-.329-1.782-.598-3.231-.598-1.448 0-3.061-.404-3.583-.898-.522-.494-3.425-1.215-6.45-1.602-3.55-.454-5.145-.361-4.5.264M88 96.947c-.825.457-4.987 1.63-9.25 2.609-7.62 1.749-9.87 3.636-5.855 4.911 1.654.525 5.381-.503 12.605-3.476 1.1-.453 3.463-1.421 5.25-2.151 1.787-.731 3.25-1.668 3.25-2.084 0-.995-4.091-.865-6 .191m65-.191c0 .416 1.463 1.353 3.25 2.084 1.787.73 4.15 1.705 5.25 2.166 1.1.461 4.163 1.62 6.807 2.574 4.426 1.598 4.934 1.607 6.423.119 1.489-1.489 1.385-1.707-1.307-2.751-1.608-.624-5.484-1.666-8.614-2.316-3.131-.65-6.018-1.508-6.417-1.907-.961-.96-5.392-.935-5.392.031m-57.5 4.274c-1.65.454-6.15 1.645-10 2.647-8.838 2.302-10.012 3.002-8.363 4.988 1.257 1.515 6.148 1.197 9.736-.631.895-.456 3.652-1.596 6.127-2.534 2.475-.938 5.281-2.109 6.236-2.603.955-.493 2.391-.897 3.191-.897.8 0 1.733-.45 2.073-1 .734-1.188-4.636-1.17-9 .03m48.5.709c1.925 1.001 5.75 2.637 8.5 3.636 2.75.999 6.914 2.676 9.253 3.727 3.521 1.582 4.597 1.697 6.25.664 3.705-2.314 1.99-3.72-7.003-5.742-3.025-.681-6.215-1.598-7.089-2.039-.874-.44-4.249-1.085-7.5-1.433l-5.911-.632 3.5 1.819M139 114c1.375 1.076 3.197 1.966 4.05 1.978.853.012 1.978.398 2.5.857.522.459 3.2 1.626 5.95 2.594s6.418 2.392 8.151 3.165c3.926 1.751 5.349 1.777 5.349.097 0-2.54-2.551-4.624-7-5.717a2081.36 2081.36 0 00-8-1.947 129.97 129.97 0 01-6.993-1.934c-5.411-1.693-6.9-1.356-4.007.907m-24.084 12.25c-.047 4.537-.413 10.884-.814 14.103-.557 4.466-.416 5.973.597 6.362 2.255.865 4.301-1.786 4.311-5.587.016-6.06-2.351-23.128-3.207-23.128-.442 0-.841 3.713-.887 8.25m30.276-3.923c1.748 1.738 20.644 9.171 21.398 8.417.326-.327.309-1.486-.037-2.578-.447-1.408-2.144-2.324-5.842-3.151-2.866-.641-6.336-1.544-7.711-2.006-1.375-.462-3.989-1.097-5.808-1.411-2.718-.469-3.075-.339-2 .729m-36.045 9.003c-.631 2.506-1.147 7.989-1.147 12.186 0 6.728.207 7.591 1.75 7.296 1.508-.289 1.789-1.753 2.035-10.599.333-11.958-.856-15.96-2.638-8.883M150.5 130c-.34.55.084 1 .941 1s1.559.45 1.559 1 .681 1 1.514 1c.832 0 2.295.412 3.25.916 2.837 1.497 8.987 4.084 9.707 4.084.367 0 .524-1.012.349-2.25-.265-1.859-1.362-2.487-6.32-3.615-3.3-.751-6.781-1.763-7.736-2.25-2.198-1.12-2.508-1.109-3.264.115m-66.687 3.683c.721.289 1.584.253 1.916-.079.332-.332-.258-.568-1.312-.525-1.165.048-1.402.285-.604.604m18.847 4.957c-.952 5.759-.791 15.161.271 15.817 1.719 1.063 2.355-1.678 2.154-9.284-.237-8.946-1.475-12.283-2.425-6.533m53.34-.187c0 .249 1.688 1.195 3.75 2.102 2.063.907 4.772 2.134 6.02 2.727 2.438 1.157 5.004-.22 3.86-2.072-1.043-1.687-13.63-4.233-13.63-2.757M97.668 145c-.301 1.375-.82 4.899-1.153 7.832-.541 4.764-.414 5.296 1.19 4.991 1.393-.265 1.861-1.467 2.09-5.374.162-2.767-.127-6.138-.642-7.49l-.938-2.459-.547 2.5m63.764.891c.378.61 1.297 1.109 2.044 1.109.746 0 1.507.38 1.691.845.183.465 1.571 1.149 3.083 1.519 2.052.503 2.75.304 2.75-.786 0-1.883-.603-2.199-5.877-3.072-3.106-.514-4.177-.403-3.691.385m-68.836 5.954c-.288.465-.822 2.715-1.187 5-.551 3.444-.386 4.155.963 4.155 1.287 0 1.628-1.048 1.628-5 0-4.874-.339-5.878-1.404-4.155M166 153c0 .55.873 1 1.941 1s2.224.457 2.569 1.016c.346.559 1.069.744 1.608.411 1.583-.978-1.089-3.427-3.74-3.427-1.308 0-2.378.45-2.378 1m-79 8c0 1.65.45 3 1 3s1-1.35 1-3-.45-3-1-3-1 1.35-1 3m-5 4.559c0 .857.457 1.276 1.016.931.559-.346.758-1.047.441-1.559-.857-1.387-1.457-1.129-1.457.628M17 214c0 .55 1.549 1 3.443 1 5.769 0 6.557 2.223 6.557 18.5 0 16.219-.691 18.136-6.765 18.772-2.054.216 6.757.467 19.581.56 15.522.112 24.046-.205 25.5-.949 3.609-1.846 5.638-5.154 5.662-9.233.018-3.083-.676-4.548-3.478-7.35-1.925-1.925-3.5-3.699-3.5-3.942 0-.243.85-1.354 1.889-2.469 4.6-4.938 3.089-12.533-2.901-14.583C58.567 212.794 17 212.517 17 214m11.227 19.25c.231 15.434.504 18.25 1.773 18.25s1.542-2.816 1.773-18.25C32.038 215.444 31.995 215 30 215c-1.995 0-2.038.444-1.773 18.25m14.87-16.347c-1.69 1.69-1.908 3.511-1.942 16.25-.046 16.703.684 18.847 6.414 18.847 4.988 0 8.431-3.637 8.431-8.907 0-5.247-1.608-8.588-4.86-10.097-2.589-1.202-2.599-1.241-.49-2.041 2.596-.986 4.693-6.741 3.78-10.378-1.302-5.187-7.734-7.273-11.333-3.674m12.82-.403c-.406 2.434-.113 13.637.369 14.119.34.341 1.428-.19 2.416-1.179 2.268-2.268 2.284-9.597.026-11.855-1.598-1.598-2.658-2.007-2.811-1.085m154.339 2.475c-4.472 1.062-6.07 2.622-7.278 7.105-.795 2.953-.705 4.639.388 7.253 1.789 4.283 3.932 5.773 14.03 9.759 4.457 1.759 8.967 4.008 10.022 4.999 4.701 4.414-4.922 6.68-12.927 3.044-3.862-1.754-10.491-8.181-10.491-10.17 0-.531-.338-.965-.75-.965-.412-.001-.75 2.693-.75 5.985 0 5.187.228 5.913 1.708 5.446.939-.296 3.767.16 6.285 1.015 2.517.855 7.756 1.554 11.641 1.554 11.538 0 15.866-3.277 15.866-12.014 0-3.153-.691-4.61-3.533-7.453-1.944-1.943-4.2-3.533-5.014-3.533-.814 0-2.262-.403-3.217-.896-.955-.492-3.943-1.514-6.639-2.269-5.607-1.571-7.699-3.883-5.961-6.585 2.599-4.037 13.179-1.102 19.764 5.483l3.6 3.6v-4.604c0-3.719-.337-4.604-1.75-4.603-.963 0-4.45-.695-7.75-1.547-6.408-1.653-12-1.849-17.244-.604M80.5 220.241c4.955 1.789 5.434 3.221 5.468 16.354.035 13.136-.558 14.693-5.968 15.678-1.375.25 4.025.47 12 .488 9.043.022 13.258-.26 11.199-.747-1.815-.43-3.615-1.097-4-1.481-1.119-1.12-.823-27.309.322-28.454.562-.562 2.013-1.173 3.225-1.358 1.211-.185 2.514-.648 2.895-1.029.381-.38-5.795-.656-13.724-.613-11.597.063-13.83.291-11.417 1.162m33.501-.491c0 .412 1.17.818 2.6.9 4.352.252 4.878 1.706 5.234 14.443.375 13.438-.596 16.438-5.563 17.189-1.525.23 6.116.486 16.978.568L153 253v-14.392l-2.979 4.698c-4.789 7.551-12.662 11.102-14.986 6.76-1.55-2.897-1.335-25.273.264-27.46.714-.977 2.852-2.142 4.75-2.589 2.324-.547-1.367-.846-11.299-.915-8.112-.056-14.75.236-14.749.648m43.999.139c0 .489.563.868 1.25.842 5.672-.21 6.75 2.359 6.75 16.094 0 12.253-1.033 14.803-6.263 15.453-1.78.221 5.65.474 16.513.562L196 253v-4.918c0-2.705.273-5.63.607-6.5.334-.87.109-1.582-.5-1.582s-1.107.588-1.107 1.307c0 1.94-5.033 7.659-8.167 9.279-4.549 2.353-6.77 1.809-8.384-2.054-2-4.787-1.956-20.652.069-24.567 1.508-2.916 5.401-4.751 7.425-3.5.581.359 1.057.176 1.057-.406 0-.697-4.961-1.059-14.5-1.059-7.975 0-14.5.4-14.5.889m-34.496 1.24c-.997 2.598-.078 30.389.996 30.124 1.35-.335 1.881-29.272.561-30.592-.66-.66-1.185-.503-1.557.468m44.179-.479c-.375.376-.683 7.621-.683 16.1 0 11.888.286 15.322 1.25 15.001.908-.302 1.326-4.476 1.528-15.255.255-13.617-.28-17.661-2.095-15.846M87 235.868c0 8.258.359 15.236.798 15.507.439.271 1.351.151 2.028-.268.904-.558 1.157-4.587.953-15.171-.248-12.8-.475-14.449-2.029-14.747-1.604-.308-1.75.918-1.75 14.679m116.516-7.918c-1.61 5.073 3.853 9.839 17.463 15.233 4.136 1.64 8.231 3.619 9.1 4.399 2.283 2.051 3.155 1.745 2.37-.832-1.142-3.748-3.261-5.418-9.749-7.682-10.707-3.736-16.7-7.771-16.7-11.242 0-2.424-1.703-2.338-2.484.124m-146.868 8.208c1.069 2.977 1.085 9.667.029 12.592-1.035 2.87.587 2.956 3.183.17 2.797-3.002 3.267-6.88 1.324-10.92-1.985-4.125-5.932-5.728-4.536-1.842" fill="#1976D2" fill-rule="evenodd"/></svg>